<svg width="114" height="113" viewBox="0 0 114 113" fill="none" xmlns="http://www.w3.org/2000/svg">
<ellipse cx="34.6367" cy="76.5567" rx="5.28513" ry="5.17024" fill="#00728F"/>
<ellipse cx="7.29294" cy="105.74" rx="5.28513" ry="5.17024" fill="#00728F"/>
<ellipse cx="16.3708" cy="89.3099" rx="4.71066" ry="4.59576" fill="#00728F"/>
<ellipse cx="5.33956" cy="78.2803" rx="4.71066" ry="4.59576" fill="#00728F"/>
<ellipse cx="32.9138" cy="94.8251" rx="4.71066" ry="4.59576" fill="#00728F"/>
<path d="M23.5942 69.728L8.46875 54.2588L18.4378 52.6545L69.0852 1.89258L76.3041 8.99696L26.1151 59.4152L23.5942 69.728Z" fill="white"/>
<rect x="59.9141" y="61.9652" width="50.5534" height="40.2129" fill="#FFCC34"/>
<rect x="95.5312" y="71.1564" width="14.0171" height="10.5703" fill="#00728F"/>
<rect x="58.0781" y="71.3861" width="36.3065" height="8.27238" fill="white"/>
<path d="M105.415 50.7054L97.4868 45.8799H71.7505L60.9505 54.4969L58.0781 64.148L110.125 63.5736V60.931L105.415 50.7054Z" fill="#FFCC34"/>
<rect x="7.35547" y="55.9904" width="21.5505" height="5.28513" transform="rotate(45.0038 7.35547 55.9904)" fill="#FFCC34"/>
<path d="M71.75 1.64478L95.3268 1.6447L95.355 8.3203L77.2649 8.3203L71.75 1.64478Z" fill="#FFCC34"/>
<rect x="72.3242" y="38.7561" width="24.1278" height="5.05534" fill="#00728F"/>
<ellipse cx="66.463" cy="104.131" rx="6.54896" ry="7.23833" fill="white"/>
<ellipse cx="102.77" cy="102.637" rx="8.38727" ry="8.73195" fill="white"/>
<path d="M104.786 100.34H101.109V104.016H104.786V100.34Z" fill="#00485A"/>
<path d="M68.0204 102.178H64.3438V105.855H68.0204V102.178Z" fill="#00485A"/>
<path d="M104.788 30.4846C105.275 30.4846 105.744 30.2916 106.089 29.9469L113.442 22.5937C113.786 22.249 113.98 21.7825 113.98 21.2931V12.1015C113.98 11.6144 113.786 11.1456 113.442 10.8009L106.089 3.44771C105.744 3.10303 105.277 2.91001 104.788 2.91001H97.4348V1.0717C97.4348 0.0560403 96.6121 -0.766602 95.5965 -0.766602H69.8602C69.373 -0.766602 68.9043 -0.573579 68.5596 -0.228897L53.8532 14.4775L17.5052 50.8255L7.05447 52.5672V52.5994C6.67761 52.65 6.32837 52.8177 6.05262 53.082L0.537704 58.5969C-0.179235 59.3138 -0.179235 60.4789 0.537704 61.1958L17.0825 77.7405C17.7994 78.4575 18.9644 78.4575 19.6813 77.7405L25.1962 72.2256C25.4605 71.9499 25.6283 71.5983 25.6788 71.2215H25.711L27.4528 60.773L63.8076 24.4297L77.9763 10.2632H95.5988C96.6144 10.2632 97.4371 9.44059 97.4371 8.42493V6.58662H104.03L110.305 12.8621V20.5325L104.027 26.808H91.9199C91.4327 26.808 90.964 27.001 90.6193 27.3457L81.9677 35.9995H71.6985C70.6828 35.9995 69.8602 36.8222 69.8602 37.8378V44.7567C62.1094 47.7877 57.0058 55.2535 56.9921 63.5741V104.017C56.9921 109.093 61.1076 113.208 66.1836 113.208C71.2596 113.208 75.3751 109.093 75.3751 104.017H92.0853C93.0803 110.026 98.7561 114.093 104.767 113.1C110.776 112.105 114.844 106.43 113.851 100.418C113.596 98.8719 113.012 97.3989 112.144 96.0937V63.5741C112.13 55.2535 107.026 47.7877 99.2754 44.7567V37.8378C99.2754 36.8222 98.4528 35.9995 97.4371 35.9995H87.1679L92.6828 30.4846H104.788ZM18.3876 73.8433L4.4441 59.8975L7.3601 56.9815L21.3059 70.9273L18.3876 73.8433ZM24.4425 58.5969C24.1714 58.868 23.9921 59.2173 23.9301 59.5942L22.6778 67.0991L11.1838 55.605L18.691 54.3527C19.0678 54.2907 19.4171 54.1114 19.6882 53.8403L55.1538 18.3748L59.9081 23.1291L24.4425 58.5969ZM62.507 20.5325L57.755 15.7782L69.8625 3.67061L74.6145 8.42493L62.507 20.5325ZM93.7582 6.58662H77.974L74.2974 2.91001H93.7582V6.58662ZM108.465 69.089H60.6687V65.4124H108.465V69.089ZM104.788 91.3141V89.3104C104.788 88.2947 103.965 87.4721 102.95 87.4721H66.1836C65.1679 87.4721 64.3453 88.2947 64.3453 89.3104V95.0091C63.0079 95.2918 61.751 95.8731 60.6687 96.7096V80.1189H93.7582V81.9572C93.7582 82.9728 94.5808 83.7955 95.5965 83.7955H108.465V92.6423C107.329 91.9828 106.084 91.5324 104.788 91.3141ZM93.7582 76.4422H60.6687V72.7656H93.7582V76.4422ZM108.465 80.1189H97.4348V72.7656H108.465V80.1189ZM66.1836 109.532C63.1389 109.532 60.6687 107.062 60.6687 104.017C60.6687 100.972 63.1389 98.5019 66.1836 98.5019C69.2283 98.5019 71.6985 100.972 71.6985 104.017C71.6985 107.062 69.2306 109.532 66.1836 109.532ZM92.0853 100.34H74.5961C73.3989 97.6034 70.9471 95.6158 68.0219 95.0091V91.1487H101.111V91.3141C96.4927 92.1046 92.8758 95.7215 92.0853 100.34ZM102.95 109.532C98.8894 109.532 95.5965 106.239 95.5965 102.179C95.5965 98.1182 98.8894 94.8253 102.95 94.8253C107.01 94.8253 110.303 98.1182 110.303 102.179C110.303 106.239 107.012 109.532 102.95 109.532ZM108.364 61.7358H60.7698C61.7165 53.3669 68.7917 47.0385 77.2134 47.0294H91.9199C100.344 47.0385 107.417 53.3669 108.364 61.7358ZM95.5965 43.7043C94.3832 43.4745 93.1538 43.3573 91.9199 43.3527H77.2134C75.9795 43.3573 74.7501 43.4745 73.5368 43.7043V39.6761H95.5965V43.7043Z" fill="#00485A"/>
<path d="M11.0337 78.2804C11.0337 75.2357 8.56352 72.7655 5.51882 72.7655C2.47413 72.7655 0.00390625 75.2357 0.00390625 78.2804C0.00390625 81.3251 2.47413 83.7953 5.51882 83.7953C8.56582 83.7953 11.0337 81.3251 11.0337 78.2804ZM3.68052 78.2804C3.68052 77.2648 4.50316 76.4421 5.51882 76.4421C6.53449 76.4421 7.35713 77.2648 7.35713 78.2804C7.35713 79.2961 6.53449 80.1187 5.51882 80.1187C4.50316 80.1187 3.68052 79.2961 3.68052 78.2804Z" fill="#00485A"/>
<path d="M7.35713 98.5015C3.29677 98.5015 0.00390625 101.794 0.00390625 105.855C0.00390625 109.915 3.29677 113.208 7.35713 113.208C11.4175 113.208 14.7104 109.915 14.7104 105.855C14.7104 101.794 11.4198 98.5015 7.35713 98.5015ZM7.35713 109.531C5.3258 109.531 3.68052 107.886 3.68052 105.855C3.68052 103.823 5.3258 102.178 7.35713 102.178C9.38846 102.178 11.0337 103.823 11.0337 105.855C11.0337 107.886 9.38846 109.531 7.35713 109.531Z" fill="#00485A"/>
<path d="M16.5501 83.796C13.5054 83.796 11.0352 86.2662 11.0352 89.3109C11.0352 92.3556 13.5054 94.8259 16.5501 94.8259C19.5948 94.8259 22.065 92.3556 22.065 89.3109C22.065 86.2662 19.5971 83.796 16.5501 83.796ZM16.5501 91.1492C15.5344 91.1492 14.7118 90.3266 14.7118 89.3109C14.7118 88.2953 15.5344 87.4726 16.5501 87.4726C17.5657 87.4726 18.3884 88.2953 18.3884 89.3109C18.3884 90.3266 17.5657 91.1492 16.5501 91.1492Z" fill="#00485A"/>
<path d="M33.093 89.3103C30.0483 89.3103 27.5781 91.7805 27.5781 94.8252C27.5781 97.8699 30.0483 100.34 33.093 100.34C36.1377 100.34 38.608 97.8699 38.608 94.8252C38.608 91.7805 36.14 89.3103 33.093 89.3103ZM33.093 96.6635C32.0774 96.6635 31.2547 95.8409 31.2547 94.8252C31.2547 93.8096 32.0774 92.9869 33.093 92.9869C34.1087 92.9869 34.9313 93.8096 34.9313 94.8252C34.9313 95.8409 34.1087 96.6635 33.093 96.6635Z" fill="#00485A"/>
<path d="M34.9313 69.0896C30.871 69.0896 27.5781 72.3825 27.5781 76.4428C27.5781 80.5032 30.871 83.796 34.9313 83.796C38.9917 83.796 42.2846 80.5032 42.2846 76.4428C42.2846 72.3825 38.994 69.0896 34.9313 69.0896ZM34.9313 80.1194C32.9 80.1194 31.2547 78.4742 31.2547 76.4428C31.2547 74.4115 32.9 72.7662 34.9313 72.7662C36.9627 72.7662 38.608 74.4115 38.608 76.4428C38.608 78.4742 36.9627 80.1194 34.9313 80.1194Z" fill="#00485A"/>
<path d="M22.0633 98.5015H18.3867V102.178H22.0633V98.5015Z" fill="#00485A"/>
<path d="M29.4188 104.017H25.7422V107.693H29.4188V104.017Z" fill="#00485A"/>
</svg>
