<svg width="85" height="115" viewBox="0 0 85 115" fill="none" xmlns="http://www.w3.org/2000/svg">
<path d="M82.6935 70.6532V12.0665L42.4303 3.16016L2.02734 12.0665V62.3036L3.56517 77.7505L13.631 92.919L42.4303 112.68L69.9714 94.3106L77.381 86.2393L82.6935 70.6532Z" fill="white"/>
<path d="M72.906 70.3758L74.3041 19.3038L41.7301 11.5107L11.1133 19.3038V70.3758L19.2218 87.0752L43.4077 102.522L66.6149 84.5703L72.906 70.3758Z" fill="#00728F"/>
<rect x="28.7305" y="48.3887" width="27.6809" height="26.7189" fill="#FFCC34"/>
<path d="M42.4986 22.4951C43.7344 22.4951 44.7354 21.4988 44.7354 20.2686C44.7354 19.0412 43.7344 18.042 42.4986 18.042C41.2655 18.042 40.2617 19.0412 40.2617 20.2686C40.2617 21.4988 41.2655 22.4951 42.4986 22.4951Z" fill="white"/>
<path d="M38.7784 113.106C39.908 113.858 41.2054 114.233 42.5028 114.233C43.7974 114.233 45.092 113.858 46.2216 113.106L66.0763 99.9304C77.926 92.0678 85 78.9088 85 64.731V11.3656C85 10.3219 84.273 9.41733 83.2469 9.19189L42.9837 0.285584C42.665 0.216003 42.3322 0.216003 42.0135 0.285584L1.75033 9.19189C0.726976 9.41733 0 10.3219 0 11.3656V64.7338C0 78.9115 7.07399 92.0706 18.9237 99.9332L38.7784 113.106ZM4.47648 64.7338V13.1496L42.5 4.73874L80.5263 13.1496V64.7338C80.5263 77.417 74.196 89.1928 63.5962 96.226L43.7414 109.402C42.9893 109.903 42.0163 109.903 41.2642 109.402L21.4094 96.226C10.8068 89.1928 4.47648 77.4197 4.47648 64.7338Z" fill="#00485A"/>
<path d="M41.2604 104.047C41.6351 104.294 42.0685 104.42 42.5019 104.42C42.9352 104.42 43.3658 104.294 43.7433 104.047L61.1152 92.5214C70.4708 86.3176 76.0545 75.9306 76.0545 64.7338V18.51C76.0545 17.4663 75.3275 16.5646 74.3014 16.3363L42.9856 9.41169C42.6668 9.33933 42.3369 9.33933 42.0153 9.41169L10.6996 16.3363C9.6762 16.5646 8.94922 17.4663 8.94922 18.51V64.7365C8.94922 75.9306 14.5329 86.3204 23.8885 92.5242L41.2604 104.047ZM13.4257 64.7338V20.2941L42.5047 13.8621L71.5836 20.2941V64.7338C71.5836 74.4361 66.7436 83.4398 58.6379 88.8169L42.5075 99.5184L26.377 88.8169C18.2657 83.4398 13.4257 74.4361 13.4257 64.7338Z" fill="#00485A"/>
<path d="M50.6474 24.7887C65.0834 27.9616 64.418 27.8809 64.8709 27.8809C65.8971 27.8809 66.8226 27.1739 67.0519 26.1386C67.3203 24.9362 66.557 23.7478 65.3519 23.4806L51.6149 20.4413C50.4098 20.1742 49.2159 20.9312 48.9474 22.1308C48.6818 23.3331 49.4423 24.5215 50.6474 24.7887Z" fill="white"/>
<path d="M29.0806 77.2698H55.9227C57.1586 77.2698 58.1595 76.2734 58.1595 75.0432V48.3243C58.1595 47.0941 57.1586 46.0977 55.9227 46.0977H53.6859V43.8712C53.6859 37.7202 48.6809 32.7383 42.5016 32.7383C36.3363 32.7383 31.3174 37.7342 31.3174 43.8712V46.0977H29.0806C27.8447 46.0977 26.8438 47.0941 26.8438 48.3243V75.0432C26.8438 76.2734 27.8447 77.2698 29.0806 77.2698ZM35.7883 43.8712C35.7883 40.189 38.7997 37.1914 42.4988 37.1914C46.2036 37.1914 49.2094 40.1834 49.2094 43.8712V46.0977H35.7883V43.8712ZM31.3174 50.5509H53.6859V72.8166H31.3174V50.5509Z" fill="#00485A"/>
<path d="M42.4986 55.0029C41.2627 55.0029 40.2617 55.9993 40.2617 57.2295V66.1358C40.2617 67.366 41.2627 68.3624 42.4986 68.3624C43.7344 68.3624 44.7354 67.366 44.7354 66.1358V57.2295C44.7354 55.9993 43.7344 55.0029 42.4986 55.0029Z" fill="#00485A"/>
</svg>
