<svg width="114" height="115" viewBox="0 0 114 115" fill="none" xmlns="http://www.w3.org/2000/svg">
<path d="M111.464 82.215V31.0759L110.199 28.0879L104.453 26.594H7.23161L1.94531 32.225L2.63483 83.2493L111.464 82.215Z" fill="white"/>
<path d="M100.319 9.35554L95.1479 3.49465L86.4141 2.34546V18.2043H90.4362V33.9483H86.4141V50.3818L95.1479 48.7729L100.319 41.533V9.35554Z" fill="#00728F"/>
<path d="M71.9343 63.1385H61.0169L60.2125 74.1707L54.5814 72.7917L42.8596 71.8724L34.8153 74.1707V61.6445L23.2084 63.1385L15.7387 68.4248L8.03906 83.1345H85.9544L79.2891 68.4248L71.9343 63.1385Z" fill="#00728F"/>
<path d="M42.2852 82.7892L44.8134 69.1137L51.4787 68.6541L53.6622 83.3638L42.2852 82.7892Z" fill="#FFCC34"/>
<path d="M78.8295 50.0371V34.2931L86.5291 33.7185L85.9545 50.0371H78.8295Z" fill="#FFCC34"/>
<path d="M78.8295 18.779V3.1499L86.5291 2.34546L85.9545 18.779H78.8295Z" fill="#FFCC34"/>
<path d="M24.4695 36.936L30.905 32.7989V29.4663L40.3284 28.0872L47.913 22.686L55.4977 28.0872L64.0017 30.5005V33.9481L68.4836 34.9824L72.161 40.8433L68.4836 46.7041L64.0017 48.1981L55.4977 57.3916V60.4944L50.5562 68.4238H44.3505L40.3284 61.9884V59.0005L36.536 55.2081L32.6288 48.1981L27.2276 46.7041L23.3203 43.3715L24.4695 36.936Z" fill="white"/>
<path d="M112.499 82.675L1.83203 83.4795L3.4409 90.8343L8.38244 93.9372H49.5236V100.717L23.6667 107.383L24.2413 112.439H90.0901V106.808L65.2675 101.637L64.3482 94.7416L106.524 93.9372L111.81 88.8807L112.499 82.675Z" fill="white"/>
<path d="M69.1744 14.9867L59.0615 4.29923L45.0413 2.57544L31.5958 7.97665L23.7812 21.767V37.5109L31.5958 32.9142V29.5815L36.8821 28.892L47.7994 23.0311L57.4526 28.892L63.0837 29.5815L64.003 32.1097L72.0474 37.5109V23.0311L69.1744 14.9867Z" fill="#FFCC34"/>
<path d="M104.806 24.1366H102.968V13.1044C102.968 6.00695 97.1919 0.233398 90.0968 0.233398H77.2258V20.4592H88.258V24.1366H73.4542C72.505 10.8014 61.3784 0.233398 47.8064 0.233398C34.2321 0.233398 23.108 10.8014 22.1587 24.1366H9.19355C4.12331 24.1366 0 28.2599 0 33.3302V86.6528C0 91.723 4.12331 95.8463 9.19355 95.8463H47.8064V99.8754L22.0645 105.392V114.233H91.9355V105.392L66.1935 99.8754V95.8463H104.806C109.877 95.8463 114 91.723 114 86.6528V33.3302C114 28.2622 109.877 24.1366 104.806 24.1366ZM99.2903 13.1044V38.8463C99.2903 43.9166 95.167 48.0399 90.0968 48.0399H88.258V35.1689H91.9355V16.7818H88.258V3.91082H90.0968C95.167 3.91082 99.2903 8.03643 99.2903 13.1044ZM80.9032 48.0399V35.1689H84.5806V48.0399H80.9032ZM80.9032 3.91082H84.5806V16.7818H80.9032V3.91082ZM88.258 31.4915H77.2258V51.7173H90.0968C97.1919 51.7173 102.968 45.9437 102.968 38.8463V27.8141H104.806C107.847 27.8141 110.323 30.2894 110.323 33.3302V81.1367H87.6652L83.8911 71.7041C81.726 66.2937 76.8052 62.3795 71.0431 61.4946L57 59.3342V58.424C60.3832 56.4612 63.0885 53.4595 64.6629 49.8487C69.586 49.6832 73.5484 45.6518 73.5484 40.6873V27.8164H88.258V31.4915ZM73.2174 81.1367L71.6752 73.421L68.069 74.1427L69.4665 81.1344H54.9452L54.0949 74.338L62.5161 76.0227V63.901L70.4824 65.1284C74.9642 65.8179 78.7933 68.861 80.4757 73.0693L83.7027 81.1367H73.2174ZM23.94 73.421L22.3955 81.1367H11.9103L15.1372 73.0693C16.8196 68.861 20.6487 65.8179 25.1306 65.1284L33.0967 63.9033V76.025L41.5158 74.3403L40.6654 81.1367H26.1442L27.5439 74.1427L23.94 73.421ZM53.3778 68.5921L56.2071 62.9334L58.8387 63.3379V71.5409L53.6144 70.4974L53.3778 68.5921ZM47.8064 57.2334C39.6954 57.2334 33.0967 50.6348 33.0967 42.5237V31.4225C38.6175 31.0065 43.7659 28.7265 47.8064 24.8882C51.8447 28.7288 56.9954 31.0088 62.5161 31.4225V42.5237C62.5161 50.6348 55.9174 57.2334 47.8064 57.2334ZM42.2903 60.0627C44.0325 60.6098 45.885 60.9108 47.8064 60.9108C49.7279 60.9108 51.5804 60.6121 53.3225 60.0627V60.4765L50.3484 66.427H45.2667L42.2926 60.4765V60.0627H42.2903ZM39.4082 62.9311L42.2374 68.5898L42.0007 70.4928L36.7742 71.5363V63.3333L39.4082 62.9311ZM45.754 70.1044H49.8635L51.2426 81.1367H44.375L45.754 70.1044ZM66.1935 42.5237V35.5068C68.3287 36.2675 69.8709 38.2901 69.8709 40.685C69.8709 43.2018 68.1656 45.3071 65.858 45.9667C66.074 44.8497 66.1935 43.7005 66.1935 42.5237ZM47.8064 3.91082C59.9741 3.91082 69.8709 13.8077 69.8709 25.9753V33.3785C68.7976 32.5648 67.5588 31.958 66.1935 31.6799V27.8141H64.3548C58.9168 27.8141 53.8052 25.6949 49.96 21.852L47.8088 19.6961L45.6529 21.8497C41.8077 25.6949 36.6961 27.8118 31.2604 27.8118H29.4217V31.6753C28.0564 31.9558 26.8176 32.5625 25.7442 33.3739V25.973C25.7419 13.81 35.641 3.91082 47.8064 3.91082ZM29.7549 45.9667C27.4473 45.3094 25.7419 43.2041 25.7419 40.685C25.7419 38.2901 27.2842 36.2675 29.4194 35.5068V42.5237C29.4194 43.7005 29.5412 44.8497 29.7549 45.9667ZM9.19355 27.8141H22.0645V40.685C22.0645 45.6495 26.0269 49.6809 30.9501 49.8464C32.5268 53.4572 35.2296 56.4589 38.6129 58.4217V59.3319L24.5697 61.4923C18.81 62.3795 13.8846 66.2914 11.7218 71.7018L7.94784 81.1344H3.67742V33.3279C3.67742 30.2894 6.15279 27.8141 9.19355 27.8141ZM25.7419 108.366L47.8064 103.638V110.556H25.7419V108.366ZM88.258 108.366V110.556H66.1935V103.638L88.258 108.366ZM62.5161 110.556H51.4838V95.8463H62.5161V110.556ZM104.806 92.1689H9.19355C6.15279 92.1689 3.67742 89.6936 3.67742 86.6528V84.8141H110.323V86.6528C110.323 89.6936 107.85 92.1689 104.806 92.1689Z" fill="#00485A"/>
<path d="M56.9989 37.0077C58.0144 37.0077 58.8376 36.1845 58.8376 35.169C58.8376 34.1535 58.0144 33.3303 56.9989 33.3303C55.9834 33.3303 55.1602 34.1535 55.1602 35.169C55.1602 36.1845 55.9834 37.0077 56.9989 37.0077Z" fill="#00485A"/>
<path d="M38.6121 37.0077C39.6276 37.0077 40.4509 36.1845 40.4509 35.169C40.4509 34.1535 39.6276 33.3303 38.6121 33.3303C37.5967 33.3303 36.7734 34.1535 36.7734 35.169C36.7734 36.1845 37.5967 37.0077 38.6121 37.0077Z" fill="#00485A"/>
<path d="M55.1605 42.5234C55.1605 46.5801 51.8624 49.8783 47.8057 49.8783C43.749 49.8783 40.4509 46.5801 40.4509 42.5234H36.7734C36.7734 48.6073 41.7219 53.5557 47.8057 53.5557C53.8895 53.5557 58.838 48.6073 58.838 42.5234H55.1605Z" fill="#00485A"/>
</svg>
