<svg width="113" height="113" viewBox="0 0 113 113" fill="none" xmlns="http://www.w3.org/2000/svg">
<g clip-path="url(#clip0_1_921)">
<path d="M41.716 25.874L50.6927 21.1216H61.7815L71.8142 25.874L77.0946 36.4347V50.6917L56.5011 41.1871L34.8516 50.1637V36.4347L41.716 25.874Z" fill="#FFCC34"/>
<path d="M27.829 83.7644C28.5721 81.6176 30.4639 80.0747 32.7162 79.7783L46.4522 77.9709C48.1417 77.7486 49.8459 78.2552 51.1397 79.3641L52.4348 80.4742C54.7506 82.4592 58.1871 82.3909 60.4222 80.3154L61.7185 79.1117C63.0883 77.8398 64.9727 77.2789 66.815 77.5947L79.1941 79.7169C81.1792 80.0571 82.8611 81.3707 83.6722 83.2142L88.1816 93.4628C88.9094 94.9184 87.8509 96.631 86.2235 96.631H51.4527C49.9444 96.631 48.4914 96.0629 47.383 95.0398L46.0325 93.7931C43.853 91.7813 40.5307 91.6639 38.2146 93.5167L36.6784 94.7457C35.1958 95.9318 33.2393 96.3461 31.4032 95.863L30.5496 95.6383C27.1716 94.7494 25.2641 91.1741 26.4067 87.8732L27.829 83.7644Z" fill="#00728F"/>
<path d="M91.7047 98.4193L87.4855 85.7596C86.011 81.3398 82.2492 78.0774 77.6636 77.2427L65.4833 75.0264V74.0823C67.6029 72.8521 69.4474 71.2063 70.9164 69.258H74.5962C77.6107 69.258 80.0639 66.8048 80.0639 63.7902V41.9192C80.0639 28.855 69.4346 18.2257 56.3704 18.2257C43.3061 18.2257 32.6768 28.855 32.6768 41.9192V54.6773C32.6768 58.1912 35.1756 61.1311 38.489 61.8164C39.5115 67.0545 42.7848 71.487 47.2575 74.0823V75.0264L35.0753 77.2427C30.4915 78.0774 26.7279 81.3398 25.2553 85.7596L24.5262 87.9485L18.3185 81.7408C17.6077 81.03 17.6077 79.8727 18.3185 79.1619L25.5177 71.9645L12.0051 58.4519L3.8691 66.5879C1.45965 68.9973 0.132812 72.2014 0.132812 75.6096C0.132812 79.0179 1.45965 82.2201 3.8691 84.6296L28.5013 109.262C30.9107 111.671 34.1148 113 37.5231 113C40.9313 113 44.1336 111.671 46.4865 109.316L55.3643 101.182L52.5958 98.4193H91.7047ZM76.4187 63.7902C76.4187 64.7963 75.6004 65.6128 74.5962 65.6128H73.0634C73.5919 64.4081 73.9929 63.1377 74.2517 61.8164C75.0318 61.6541 75.7499 61.3443 76.4187 60.9543V63.7902ZM74.5962 57.8158V51.5388C75.6806 52.1713 76.4187 53.3341 76.4187 54.6773C76.4187 56.0205 75.6806 57.1834 74.5962 57.8158ZM38.1446 57.8158C37.0601 57.1834 36.322 56.0205 36.322 54.6773C36.322 53.3341 37.0601 52.1713 38.1446 51.5388V57.8158ZM38.1446 45.5644V47.6458C37.4957 47.8153 36.887 48.0705 36.322 48.4003V41.9192C36.322 30.8653 45.3164 21.8709 56.3704 21.8709C67.4243 21.8709 76.4187 30.8653 76.4187 41.9192V48.4003C75.8538 48.0705 75.245 47.8135 74.5962 47.6458V45.5644H72.7736C67.3842 45.5644 62.3174 43.4648 58.5046 39.6538L56.3704 37.5195L54.2361 39.6538C50.4233 43.4648 45.3565 45.5644 39.9671 45.5644H38.1446ZM41.7897 58.3225V49.1403C47.2629 48.7284 52.3661 46.4702 56.3704 42.6629C60.3746 46.4702 65.4778 48.7302 70.951 49.1403V58.3225C70.951 60.9798 70.2256 63.4658 68.979 65.6128H56.3704V69.258H65.9827C63.4128 71.5198 60.0538 72.9031 56.3704 72.9031C48.331 72.9031 41.7897 66.3619 41.7897 58.3225ZM61.8381 75.7081V75.7937L56.3704 81.2615L50.9026 75.7937V75.7081C52.6304 76.2512 54.4658 76.5483 56.3704 76.5483C58.275 76.5483 60.1103 76.2512 61.8381 75.7081ZM28.7109 86.9115C29.7625 83.7548 32.4508 81.4237 35.726 80.8259L48.4658 78.5112L56.3704 86.4157L64.2731 78.513L77.0111 80.8277C80.2863 81.4255 82.9746 83.7548 84.0262 86.9133L86.6489 94.7741H48.9506L41.8517 87.6751L33.9636 94.8105C33.2764 95.5013 32.0754 95.5013 31.3864 94.8105L27.4059 90.83L28.7109 86.9115ZM12.0033 63.6061L20.3616 71.9645L18.3823 73.9438L10.024 65.5855L12.0033 63.6061ZM43.9622 106.688C42.2417 108.405 39.9526 109.355 37.5194 109.355C35.0863 109.355 32.7971 108.405 31.0748 106.685L6.44259 82.0543C4.72207 80.3338 3.77433 78.0446 3.77433 75.6115C3.77433 73.1765 4.72207 70.8873 6.44259 69.1668L7.44501 68.1644L15.8034 76.5228L15.7377 76.5884C13.6072 78.7208 13.6072 82.1892 15.7377 84.3216L28.8075 97.3913C29.8409 98.4229 31.2133 98.9934 32.675 98.9934C34.1367 98.9934 35.5091 98.4247 36.4751 97.4551L36.6118 97.333L45.0084 105.73L43.9622 106.688ZM47.6985 103.262L39.3201 94.8834L41.7277 92.7073L50.0916 101.071L47.6985 103.262Z" fill="#00485A"/>
<path d="M107.402 0H81.8857C78.8712 0 76.418 2.45319 76.418 5.46774V20.0484C76.418 23.0629 78.8712 25.5161 81.8857 25.5161H86.7538L84.8693 36.5081L102.457 25.5161H107.402C110.416 25.5161 112.87 23.0629 112.87 20.0484V5.46774C112.87 2.45319 110.416 0 107.402 0ZM109.224 20.0484C109.224 21.0526 108.406 21.871 107.402 21.871H101.411L89.8358 29.1048L91.077 21.871H81.8857C80.8815 21.871 80.0631 21.0526 80.0631 20.0484V5.46774C80.0631 4.4635 80.8815 3.64516 81.8857 3.64516H107.402C108.406 3.64516 109.224 4.4635 109.224 5.46774V20.0484Z" fill="#00485A"/>
<path d="M105.578 7.29031H83.707V10.9355H105.578V7.29031Z" fill="#00485A"/>
<path d="M98.2877 14.5806H83.707V18.2257H98.2877V14.5806Z" fill="#00485A"/>
<path d="M105.579 14.5806H101.934V18.2257H105.579V14.5806Z" fill="#00485A"/>
<path d="M63.1957 56.6874C64.2682 56.6874 65.1375 55.818 65.1375 54.7456C65.1375 53.6731 64.2682 52.8037 63.1957 52.8037C62.1233 52.8037 61.2539 53.6731 61.2539 54.7456C61.2539 55.818 62.1233 56.6874 63.1957 56.6874Z" fill="#00485A"/>
<path d="M49.4653 56.6874C50.5377 56.6874 51.4071 55.818 51.4071 54.7456C51.4071 53.6731 50.5377 52.8037 49.4653 52.8037C48.3928 52.8037 47.5234 53.6731 47.5234 54.7456C47.5234 55.818 48.3928 56.6874 49.4653 56.6874Z" fill="#00485A"/>
</g>
<defs>
<clipPath id="clip0_1_921">
<rect width="113" height="113" fill="white"/>
</clipPath>
</defs>
</svg>
