<svg width="116" height="109" viewBox="0 0 116 109" fill="none" xmlns="http://www.w3.org/2000/svg">
<ellipse cx="58.0311" cy="55.634" rx="48.1952" ry="48.8508" fill="white"/>
<ellipse cx="58.0295" cy="54.6503" rx="35.7366" ry="35.4088" fill="#00728F"/>
<path d="M33.0781 59.1409C33.0781 60.3915 32.0631 61.4065 30.8125 61.4065C29.5619 61.4065 28.5469 60.3915 28.5469 59.1409C28.5469 57.8902 29.5619 56.8752 30.8125 56.8752C32.0631 56.8752 33.0781 57.8902 33.0781 59.1409Z" fill="white"/>
<path d="M7.78925 66.6037C10.9 70.0384 10.7708 72.7821 10.5578 77.3247C10.4921 78.6863 10.4196 80.2315 10.4468 81.9012C10.5805 89.9918 16.5119 91.3375 21.2765 92.4183C25.3297 93.3381 29.1609 94.2081 31.4582 98.2137C35.3914 105.192 38.7332 110.761 46.4725 108.282C49.1006 107.439 50.9811 106.642 52.4923 106.001C54.7624 105.038 56.0131 104.508 58 104.508C59.987 104.508 61.2376 105.038 63.5077 106.001C65.0189 106.642 66.8994 107.439 69.5275 108.282C73.2024 109.46 76.1839 108.819 78.7146 106.581C81.0346 104.528 82.8448 101.175 84.5418 98.2137C86.8391 94.2081 90.6703 93.3381 94.7235 92.4183C99.4881 91.3375 105.42 89.9918 105.551 81.9012C105.578 80.2292 105.506 78.6863 105.442 77.3247C105.229 72.7821 105.1 70.0407 108.211 66.606C112.932 61.3928 116.005 58.1416 116 54.5461C116.007 50.7081 112.225 46.9223 108.211 42.4907C105.1 39.0537 105.229 36.3123 105.442 31.7698C105.506 30.4081 105.578 28.863 105.551 27.1932C105.42 19.1027 99.4904 17.7569 94.7235 16.6762C90.6703 15.7563 86.8391 14.8863 84.5395 10.8807C82.8358 7.9082 81.012 4.54602 78.7124 2.51375C76.1182 0.22094 73.114 -0.334138 69.5275 0.814533C66.8971 1.65735 65.0144 2.45484 63.5032 3.09602C61.2331 4.05891 59.9847 4.58906 58.0023 4.58906C56.0153 4.58906 54.767 4.05891 52.4968 3.09602C50.9856 2.45484 49.1029 1.65735 46.4725 0.814533C42.886 -0.336404 39.8818 0.218675 37.2877 2.51149C34.9677 4.56188 33.1552 7.91953 31.4582 10.8784C29.1609 14.8818 25.1825 15.7541 20.9684 16.6739C16.0361 17.7523 9.89855 19.0959 9.76714 27.1909C9.73543 29.2209 9.89855 31.0448 10.0436 32.6534C10.4174 36.8176 10.6439 39.3301 7.78699 42.4884C3.14019 47.6201 -0.0112905 50.9369 3.76182e-05 54.5393C-0.0135561 58.3501 3.65902 62.0453 7.78925 66.6037ZM11.1469 45.5289C15.336 40.9002 14.9577 36.6975 14.5567 32.2478C14.4162 30.6777 14.2689 29.0533 14.2984 27.2634C14.3686 22.9361 16.6909 22.2473 21.9358 21.0987C26.4603 20.1086 32.0926 18.8784 35.3891 13.1305C38.7196 7.71789 40.2171 3.56274 45.0905 5.12375C47.5238 5.90539 49.2253 6.62586 50.7274 7.2625C53.1674 8.29563 55.0932 9.11352 58 9.11578C60.9045 9.11578 62.8303 8.29789 65.2704 7.2625C66.7725 6.62586 68.474 5.90313 70.9095 5.12375C75.7716 3.565 77.2284 7.63633 80.6087 13.1305C83.8961 18.8602 89.3427 20.0973 93.7198 21.0896C98.8605 22.2564 100.947 22.9044 101.02 27.2634C101.045 28.7905 100.979 30.1951 100.915 31.5545C100.696 36.2602 100.487 40.7054 104.851 45.5289C108.193 49.2196 111.471 52.6973 111.466 54.537V54.5483C111.471 56.5376 107.556 60.5749 104.851 63.561C100.485 68.3822 100.696 72.8274 100.915 77.5331C100.979 78.8925 101.045 80.2972 101.02 81.8242C100.947 86.1833 98.8583 86.8312 93.7198 87.998C89.3427 88.9904 83.8961 90.2274 80.6109 95.9572L80.3051 96.4896C76.4739 103.185 74.8993 105.239 70.9118 103.964C68.4808 103.182 66.7793 102.462 65.2772 101.825C62.8371 100.79 60.9091 99.9718 58 99.9718C55.091 99.9718 53.1629 100.79 50.7228 101.825C49.223 102.462 47.5215 103.182 45.0905 103.962C40.2375 105.516 38.7898 101.481 35.3914 95.9549C32.1039 90.2251 26.6574 88.9881 22.2802 87.9958C17.1395 86.829 15.0506 86.1833 14.9781 81.8219C14.9532 80.2949 15.0189 78.8925 15.0823 77.5331C15.3043 72.8251 15.5128 68.38 11.1469 63.5587C8.09738 60.192 4.52449 56.4447 4.53129 54.5348C4.52449 52.5546 8.44855 48.5105 11.1469 45.5289Z" fill="#00485A"/>
<path d="M48.9375 38.7498C45.1902 38.7498 42.1406 41.7993 42.1406 45.5466C42.1406 49.294 45.1902 52.3435 48.9375 52.3435C52.6848 52.3435 55.7344 49.294 55.7344 45.5466C55.7344 41.7993 52.6848 38.7498 48.9375 38.7498ZM48.9375 47.8122C47.6869 47.8122 46.6719 46.795 46.6719 45.5466C46.6719 44.296 47.6869 43.281 48.9375 43.281C50.1881 43.281 51.2031 44.296 51.2031 45.5466C51.2031 46.795 50.1881 47.8122 48.9375 47.8122Z" fill="#FFCC34"/>
<path d="M60.2656 63.6716C60.2656 67.419 63.3152 70.4685 67.0625 70.4685C70.8098 70.4685 73.8594 67.419 73.8594 63.6716C73.8594 59.9243 70.8098 56.8748 67.0625 56.8748C63.3152 56.8748 60.2656 59.9243 60.2656 63.6716ZM69.3281 63.6716C69.3281 64.92 68.3131 65.9373 67.0625 65.9373C65.8119 65.9373 64.7969 64.92 64.7969 63.6716C64.7969 62.421 65.8119 61.406 67.0625 61.406C68.3131 61.406 69.3281 62.4233 69.3281 63.6716Z" fill="#FFCC34"/>
<path d="M47.6798 70.0877C48.7152 70.7788 50.1244 70.5046 50.8222 69.4602L68.9472 42.2728C69.6405 41.2306 69.3596 39.8259 68.3197 39.1304C67.2775 38.4348 65.8705 38.718 65.1772 39.7579L47.0522 66.9453C46.3589 67.9875 46.6399 69.3945 47.6798 70.0877Z" fill="#FFCC34"/>
<path d="M58 93.1247C79.2379 93.1247 96.5156 75.8471 96.5156 54.6091C96.5156 33.3712 79.2379 16.0935 58 16.0935C36.762 16.0935 19.4844 33.3712 19.4844 54.6091C19.4844 75.8471 36.762 93.1247 58 93.1247ZM58 20.6248C76.739 20.6248 91.9844 35.8701 91.9844 54.6091C91.9844 73.3481 76.739 88.5935 58 88.5935C39.261 88.5935 24.0156 73.3481 24.0156 54.6091C24.0156 35.8701 39.261 20.6248 58 20.6248Z" fill="#00485A"/>
<path d="M53.8437 30.0339C55.0762 29.8254 55.91 28.6564 55.7016 27.4239C55.4954 26.1914 54.3263 25.3599 53.0916 25.566C40.7326 27.6459 31.0312 37.3496 28.9536 49.7085C28.7225 51.086 29.7828 52.3503 31.1898 52.3503C32.275 52.3503 33.2356 51.5663 33.4214 50.4607C35.1795 40.0026 43.3879 31.7942 53.8437 30.0339Z" fill="white"/>
</svg>
