<svg width="13" height="13" viewBox="0 0 13 13" fill="none" xmlns="http://www.w3.org/2000/svg">
<path d="M12.1587 5.64929C12.4012 5.40577 12.4841 5.05155 12.3797 4.71947C12.2754 4.3874 12.0053 4.15336 11.6707 4.10276L8.70294 3.65683C8.57711 3.63785 8.46662 3.55562 8.41138 3.4386L7.08246 0.668132C6.93514 0.35503 6.6313 0.162109 6.2937 0.162109C5.95611 0.162109 5.65533 0.35503 5.50495 0.668132L4.1791 3.4386C4.12386 3.55562 4.01337 3.63785 3.88754 3.65683L0.919731 4.10276C0.585201 4.15336 0.312052 4.3874 0.207703 4.71947C0.103354 5.05155 0.189288 5.40577 0.431746 5.64929L2.58011 7.80621C2.67218 7.89793 2.71208 8.03076 2.6906 8.16043L2.1842 11.206C2.14123 11.4749 2.20875 11.7374 2.37755 11.9398C2.64149 12.2624 3.09572 12.3573 3.46401 12.1612L6.11263 10.7253C6.22312 10.6652 6.36429 10.6652 6.47478 10.7253L9.12954 12.1643C9.25844 12.2339 9.39655 12.2719 9.53773 12.2719C9.79554 12.2719 10.0441 12.1517 10.2129 11.9461C10.3817 11.7405 10.4493 11.478 10.4063 11.2124L9.89988 8.16675C9.8784 8.03708 9.92137 7.90425 10.0104 7.81254L12.1587 5.64929Z" fill="white"/>
</svg>
