<svg width="108" height="108" viewBox="0 0 108 108" fill="none" xmlns="http://www.w3.org/2000/svg">
<g clip-path="url(#clip0_1_894)">
<path d="M106 103.129C106 104.162 105.161 105 104.125 105H62.875C61.8395 105 61 104.162 61 103.129V48.8711C61 47.8377 61.8395 47.0001 62.875 47.0001H104.125C105.161 47.0001 106 47.8377 106 48.8711V103.129Z" fill="#00728F"/>
<rect x="15" y="30.0001" width="45" height="7" fill="#FFCC34"/>
<path d="M71.3333 67.0001H94.6667C96.5076 67.0001 98 65.6569 98 64.0001V58.0001C98 56.3432 96.5076 55.0001 94.6667 55.0001H71.3333C69.4924 55.0001 68 56.3432 68 58.0001V64.0001C68 65.6569 69.4924 67.0001 71.3333 67.0001Z" fill="#EFEFEE"/>
<path d="M48.5984 62.1C48.5984 63.0941 49.4043 63.9 50.3984 63.9C51.3926 63.9 52.1984 63.0941 52.1984 62.1C52.1984 56.1456 46.6904 51.2244 39.5984 50.5008V48.6C39.5984 47.6059 38.7926 46.8 37.7984 46.8C36.8043 46.8 35.9984 47.6059 35.9984 48.6V50.5008C28.9064 51.2208 23.3984 56.1456 23.3984 62.1C23.3984 68.0544 28.9064 72.9756 35.9984 73.6992V89.8776C30.899 89.2332 26.9984 85.905 26.9984 81.9C26.9984 80.9059 26.1926 80.1 25.1984 80.1C24.2043 80.1 23.3984 80.9059 23.3984 81.9C23.3984 87.8544 28.9064 92.7756 35.9984 93.4992V95.4C35.9984 96.3941 36.8043 97.2 37.7984 97.2C38.7926 97.2 39.5984 96.3941 39.5984 95.4V93.4992C46.6904 92.7792 52.1984 87.8544 52.1984 81.9C52.1984 75.9456 46.6904 71.0244 39.5984 70.3008V54.1224C44.6978 54.7668 48.5984 58.095 48.5984 62.1ZM26.9984 62.1C26.9984 58.095 30.899 54.7668 35.9984 54.1224V70.0776C30.899 69.4332 26.9984 66.105 26.9984 62.1ZM48.5984 81.9C48.5984 85.905 44.6978 89.2332 39.5984 89.8776V73.9224C44.6978 74.5668 48.5984 77.895 48.5984 81.9Z" fill="#00485A"/>
<path d="M6.48013 54.3115C5.57847 53.893 4.50829 54.2847 4.08973 55.1863C1.38059 61.0168 -0.0154771 67.3709 0.000129418 73.8001C0.000129418 96.4927 12.7171 108 37.8001 108C42.8684 108.08 47.9254 107.497 52.8427 106.267C53.8035 106.011 54.3753 105.025 54.1198 104.064C53.8643 103.104 52.8783 102.532 51.9175 102.787C47.3003 103.928 42.5556 104.47 37.8001 104.4C14.7871 104.4 3.60013 94.3903 3.60013 73.8001C3.56774 67.8919 4.85098 62.0506 7.35673 56.7001C7.77375 55.7984 7.38141 54.7293 6.48013 54.3115Z" fill="#00485A"/>
<path d="M102.602 44.9999H63.0016C60.0192 44.9999 57.6016 47.4176 57.6016 50.3999V102.6C57.6016 105.582 60.0192 108 63.0016 108H102.602C105.584 108 108.002 105.582 108.002 102.6V50.3999C108.002 47.4176 105.584 44.9999 102.602 44.9999ZM104.402 102.6C104.402 103.594 103.596 104.4 102.602 104.4H63.0016C62.0075 104.4 61.2016 103.594 61.2016 102.6V50.3999C61.2016 49.4058 62.0075 48.5999 63.0016 48.5999H102.602C103.596 48.5999 104.402 49.4058 104.402 50.3999V102.6Z" fill="#00485A"/>
<path d="M70.2016 68.4H95.4016C97.3898 68.4 99.0016 66.7882 99.0016 64.8V57.6C99.0016 55.6118 97.3898 54 95.4016 54H70.2016C68.2133 54 66.6016 55.6118 66.6016 57.6V64.8C66.6016 66.7882 68.2133 68.4 70.2016 68.4ZM70.2016 57.6H95.4016V64.8H70.2016V57.6Z" fill="#00485A"/>
<path d="M73.8016 73.8H68.4016C67.4074 73.8 66.6016 74.6059 66.6016 75.6C66.6016 76.5941 67.4074 77.4 68.4016 77.4H73.8016C74.7957 77.4 75.6016 76.5941 75.6016 75.6C75.6016 74.6059 74.7957 73.8 73.8016 73.8Z" fill="#00485A"/>
<path d="M73.8016 81H68.4016C67.4074 81 66.6016 81.8059 66.6016 82.8C66.6016 83.7941 67.4074 84.6 68.4016 84.6H73.8016C74.7957 84.6 75.6016 83.7941 75.6016 82.8C75.6016 81.8059 74.7957 81 73.8016 81Z" fill="#00485A"/>
<path d="M73.8016 88.2H68.4016C67.4074 88.2 66.6016 89.0059 66.6016 90C66.6016 90.9941 67.4074 91.8 68.4016 91.8H73.8016C74.7957 91.8 75.6016 90.9941 75.6016 90C75.6016 89.0059 74.7957 88.2 73.8016 88.2Z" fill="#00485A"/>
<path d="M73.8016 95.4001H68.4016C67.4074 95.4001 66.6016 96.2059 66.6016 97.2C66.6016 98.1942 67.4074 99 68.4016 99H73.8016C74.7957 99 75.6016 98.1942 75.6016 97.2C75.6016 96.2059 74.7957 95.4001 73.8016 95.4001Z" fill="#00485A"/>
<path d="M86.3992 73.8H80.9992C80.0051 73.8 79.1992 74.6059 79.1992 75.6C79.1992 76.5941 80.0051 77.4 80.9992 77.4H86.3992C87.3933 77.4 88.1992 76.5941 88.1992 75.6C88.1992 74.6059 87.3933 73.8 86.3992 73.8Z" fill="#00485A"/>
<path d="M86.3992 81H80.9992C80.0051 81 79.1992 81.8059 79.1992 82.8C79.1992 83.7941 80.0051 84.6 80.9992 84.6H86.3992C87.3933 84.6 88.1992 83.7941 88.1992 82.8C88.1992 81.8059 87.3933 81 86.3992 81Z" fill="#00485A"/>
<path d="M86.3992 88.2H80.9992C80.0051 88.2 79.1992 89.0059 79.1992 90C79.1992 90.9941 80.0051 91.8 80.9992 91.8H86.3992C87.3933 91.8 88.1992 90.9941 88.1992 90C88.1992 89.0059 87.3933 88.2 86.3992 88.2Z" fill="#00485A"/>
<path d="M86.3992 95.4001H80.9992C80.0051 95.4001 79.1992 96.2059 79.1992 97.2C79.1992 98.1942 80.0051 99 80.9992 99H86.3992C87.3933 99 88.1992 98.1942 88.1992 97.2C88.1992 96.2059 87.3933 95.4001 86.3992 95.4001Z" fill="#00485A"/>
<path d="M99.0008 73.8H93.6008C92.6067 73.8 91.8008 74.6059 91.8008 75.6C91.8008 76.5941 92.6067 77.4 93.6008 77.4H99.0008C99.9949 77.4 100.801 76.5941 100.801 75.6C100.801 74.6059 99.9949 73.8 99.0008 73.8Z" fill="#00485A"/>
<path d="M99.0008 81H93.6008C92.6067 81 91.8008 81.8059 91.8008 82.8C91.8008 83.7941 92.6067 84.6 93.6008 84.6H99.0008C99.9949 84.6 100.801 83.7941 100.801 82.8C100.801 81.8059 99.9949 81 99.0008 81Z" fill="#00485A"/>
<path d="M99.0008 88.2H93.6008C92.6067 88.2 91.8008 89.0059 91.8008 90C91.8008 90.9941 92.6067 91.8 93.6008 91.8H99.0008C99.9949 91.8 100.801 90.9941 100.801 90C100.801 89.0059 99.9949 88.2 99.0008 88.2Z" fill="#00485A"/>
<path d="M99.0008 95.4001H93.6008C92.6067 95.4001 91.8008 96.2059 91.8008 97.2C91.8008 98.1942 92.6067 99 93.6008 99H99.0008C99.9949 99 100.801 98.1942 100.801 97.2C100.801 96.2059 99.9949 95.4001 99.0008 95.4001Z" fill="#00485A"/>
<path d="M11.3859 2.27339C6.64646 6.61499 14.9733 20.007 19.8801 27H18.9009C17.2288 26.9939 15.6236 27.6562 14.4423 28.8396C13.265 30.0259 12.6033 31.6287 12.6009 33.3C12.6086 35.543 13.812 37.6116 15.7581 38.727C13.657 40.9493 11.6777 43.2838 9.82886 45.72C9.23239 46.5153 9.39357 47.6435 10.1889 48.24C10.9841 48.8365 12.1124 48.6753 12.7089 47.88C14.9322 44.9712 17.337 42.2057 19.9089 39.6H56.7009C58.9516 39.6 61.0314 38.3992 62.1568 36.45C63.2822 34.5008 63.2822 32.0992 62.1568 30.15C61.0314 28.2008 58.9516 27 56.7009 27H55.7217C60.6267 20.007 68.9535 6.61679 64.2177 2.27339C62.0397 0.278991 59.5017 1.73339 57.2643 3.00599C55.2297 4.39937 52.8607 5.22569 50.4009 5.39999C48.4482 5.39587 46.5867 4.57317 45.2691 3.13199C43.2993 1.12939 40.608 0.00152969 37.7991 0.00152969C34.9901 0.00152969 32.2988 1.12939 30.3291 3.13199C29.0093 4.57548 27.1441 5.39839 25.1883 5.39999C22.7297 5.2275 20.362 4.40097 18.3303 3.00599C16.0947 1.72979 13.5585 0.280791 11.3859 2.27339ZM58.6143 31.3884C59.3887 32.1609 59.6206 33.3244 59.2014 34.3347C58.7821 35.3451 57.7947 36.0027 56.7009 36H18.9009C17.4097 36 16.2009 34.7912 16.2009 33.3C16.2009 31.8088 17.4097 30.6 18.9009 30.6H56.7009C57.4177 30.6002 58.1054 30.8836 58.6143 31.3884ZM25.1883 8.99999C27.9983 8.99959 30.6905 7.87047 32.6601 5.86619C33.9747 4.42203 35.8371 3.59888 37.7901 3.59888C39.743 3.59888 41.6054 4.42203 42.9201 5.86619C44.8923 7.87201 47.5878 9.0012 50.4009 8.99999C53.4914 8.83761 56.4814 7.84656 59.0571 6.13079C59.8788 5.55074 60.8086 5.14128 61.7913 4.92659C63.6381 6.61859 58.7565 16.8228 51.2937 27H46.8009V18C46.8009 17.0059 45.995 16.2 45.0009 16.2C44.0067 16.2 43.2009 17.0059 43.2009 18V27H32.4009V18C32.4009 17.0059 31.595 16.2 30.6009 16.2C29.6067 16.2 28.8009 17.0059 28.8009 18V27H24.3153C16.8525 16.8228 11.9709 6.61859 13.8429 4.89959C14.8052 5.15663 15.7178 5.57276 16.5429 6.13079C19.1146 7.84634 22.1011 8.83746 25.1883 8.99999Z" fill="#00485A"/>
</g>
<defs>
<clipPath id="clip0_1_894">
<rect width="108" height="108" fill="white"/>
</clipPath>
</defs>
</svg>
