<svg width="0" height="0" class="hidden">
<symbol fill="none" xmlns="http://www.w3.org/2000/svg" viewBox="0 0 14 15" id="plus">
    <circle cx="6.9808" cy="7.50034" r="6.9808" fill="#3489A0"></circle>
    <rect x="6.34766" y="3.27295" width="1.26836" height="8.45593" rx="0.634182" fill="#F8F1E5"></rect>
    <rect x="2.75391" y="8.13477" width="1.26836" height="8.45593" rx="0.634182" transform="rotate(-90 2.75391 8.13477)" fill="#F8F1E5"></rect>
  </symbol>
  <symbol  xmlns="http://www.w3.org/2000/svg" viewBox="0 0 27 50" id="arrow-right">
    <path d="M26.1734 23.3953L3.27472 0.559851C2.52447 -0.187888 1.3098 -0.186631 0.560804 0.563719C-0.187608 1.31397 -0.185674 2.52933 0.564672 3.27765L22.1004 24.754L0.563898 46.2303C-0.186352 46.9787 -0.188286 48.1932 0.56003 48.9436C0.935494 49.3197 1.42738 49.5078 1.91926 49.5078C2.40989 49.5078 2.89984 49.321 3.27462 48.9475L26.1734 26.1126C26.5348 25.753 26.7375 25.2638 26.7375 24.754C26.7375 24.2442 26.5342 23.7555 26.1734 23.3953Z"></path>
  </symbol>
  <symbol xmlns="http://www.w3.org/2000/svg" xmlns:xlink="http://www.w3.org/1999/xlink" viewBox="0 0 18 18" id="close">
    <defs>
      <path id="avzva" d="M691.485 160.07l-1.414 1.415-7.071-7.071-7.071 7.071-1.414-1.414 7.07-7.071-7.07-7.071 1.414-1.415 7.07 7.071 7.072-7.07 1.414 1.414-7.07 7.07z"></path>
    </defs>
    <g>
      <g transform="translate(-674 -144)">
        <use  xlink:href="#avzva"></use>
      </g>
    </g>
  </symbol>
  <symbol  xmlns="http://www.w3.org/2000/svg" viewBox="0 0 23 22" id="Facebook">
    <path d="M23 11C23 4.92422 17.852 0 11.5 0C5.14805 0 0 4.92422 0 11C0 17.0758 5.14805 22 11.5 22C11.5674 22 11.6348 22 11.7021 21.9957V13.4363H9.23145V10.682H11.7021V8.65391C11.7021 6.30352 13.2025 5.02305 15.3947 5.02305C16.4459 5.02305 17.3488 5.09609 17.6094 5.13047V7.58828H16.1C14.9096 7.58828 14.676 8.12969 14.676 8.92461V10.6777H17.5285L17.1557 13.432H14.676V21.5746C19.4826 20.2555 23 16.023 23 11Z"></path>
  </symbol>
  <symbol  xmlns="http://www.w3.org/2000/svg" viewBox="0 0 21 20" id="instagram">
    <path d="M20.4707 5.76918C20.4226 4.72654 20.2462 4.00974 19.9936 3.38862C19.7329 2.72931 19.3319 2.13904 18.8066 1.64834C18.2933 1.15 17.6717 0.762776 16.99 0.517502C16.3365 0.275971 15.5906 0.107364 14.5 0.0613934C13.4011 0.01153 13.0523 0 10.2654 0C7.47852 0 7.12968 0.01153 6.03494 0.0575002C4.94427 0.10347 4.19445 0.272227 3.54487 0.513608C2.85504 0.762776 2.23757 1.14611 1.72427 1.64834C1.20298 2.13904 0.79807 2.7332 0.54134 3.38487C0.288684 4.00974 0.112309 4.72265 0.0642215 5.76529C0.0120611 6.81572 0 7.14919 0 9.81336C0 12.4775 0.0120611 12.811 0.0601489 13.8575C0.108237 14.9002 0.284768 15.617 0.537424 16.2381C0.79807 16.8974 1.20298 17.4877 1.72427 17.9784C2.23757 18.4767 2.85911 18.864 3.5408 19.1092C4.19445 19.3508 4.9402 19.5194 6.03103 19.5653C7.12561 19.6115 7.4746 19.6228 10.2615 19.6228C13.0484 19.6228 13.3972 19.6115 14.492 19.5653C15.5826 19.5194 16.3325 19.3508 16.982 19.1092C18.3616 18.5994 19.4522 17.5567 19.9856 16.2381C20.2381 15.6132 20.4146 14.9002 20.4627 13.8575C20.5108 12.811 20.5228 12.4775 20.5228 9.81336C20.5228 7.14919 20.5188 6.81572 20.4707 5.76918ZM18.6222 13.7809C18.578 14.7392 18.4096 15.2567 18.2693 15.6017C17.9244 16.4566 17.2147 17.1351 16.3204 17.4648C15.9595 17.5989 15.4143 17.7599 14.4157 17.802C13.333 17.8481 13.0083 17.8595 10.2695 17.8595C7.53068 17.8595 7.20189 17.8481 6.12313 17.802C5.12065 17.7599 4.57931 17.5989 4.21841 17.4648C3.7734 17.3076 3.36834 17.0584 3.03956 16.7326C2.69871 16.4144 2.43807 16.031 2.2736 15.6056C2.13325 15.2606 1.96486 14.7392 1.92085 13.7848C1.8726 12.7498 1.8607 12.4392 1.8607 9.821C1.8607 7.2028 1.8726 6.88849 1.92085 5.85738C1.96486 4.89904 2.13325 4.38154 2.2736 4.03654C2.43807 3.61098 2.69871 3.2239 3.04363 2.90945C3.37633 2.58361 3.77732 2.33445 4.22249 2.17737C4.58338 2.0432 5.12879 1.88223 6.1272 1.84001C7.20988 1.79404 7.53475 1.78251 10.2734 1.78251C13.0163 1.78251 13.341 1.79404 14.4198 1.84001C15.4222 1.88223 15.9636 2.0432 16.3245 2.17737C16.7695 2.33445 17.1746 2.58361 17.5033 2.90945C17.8442 3.22765 18.1048 3.61098 18.2693 4.03654C18.4096 4.38154 18.578 4.90279 18.6222 5.85738C18.6703 6.89238 18.6823 7.2028 18.6823 9.821C18.6823 12.4392 18.6703 12.7459 18.6222 13.7809Z"></path>
    <path d="M10.2652 4.77246C7.35413 4.77246 4.99219 7.03024 4.99219 9.81331C4.99219 12.5964 7.35413 14.8542 10.2652 14.8542C13.1765 14.8542 15.5383 12.5964 15.5383 9.81331C15.5383 7.03024 13.1765 4.77246 10.2652 4.77246ZM10.2652 13.0832C8.37666 13.0832 6.84474 11.6189 6.84474 9.81331C6.84474 8.00774 8.37666 6.54344 10.2652 6.54344C12.154 6.54344 13.6857 8.00774 13.6857 9.81331C13.6857 11.6189 12.154 13.0832 10.2652 13.0832Z" fill="black"></path>
    <path d="M16.9778 4.57329C16.9778 5.22316 16.4266 5.7501 15.7466 5.7501C15.0668 5.7501 14.5156 5.22316 14.5156 4.57329C14.5156 3.92327 15.0668 3.39648 15.7466 3.39648C16.4266 3.39648 16.9778 3.92327 16.9778 4.57329Z" fill="black"></path>
  </symbol>
  <symbol  xmlns="http://www.w3.org/2000/svg" viewBox="0 0 18 18" id="phone">
    <path d="M15.1526 10.7298C14.7598 10.3226 14.2859 10.1048 13.7836 10.1048C13.2854 10.1048 12.8075 10.3185 12.3984 10.7258L11.1185 11.996C11.0132 11.9395 10.9079 11.8871 10.8067 11.8347C10.6609 11.7621 10.5231 11.6935 10.4057 11.621C9.2068 10.8629 8.11727 9.875 7.07229 8.59677C6.566 7.95968 6.22578 7.42339 5.97871 6.87903C6.31083 6.57661 6.61866 6.2621 6.91838 5.95968C7.03179 5.84677 7.1452 5.72984 7.2586 5.61694C8.10917 4.77016 8.10917 3.67339 7.2586 2.82661L6.15287 1.72581C6.02731 1.60081 5.8977 1.47177 5.77619 1.34274C5.53318 1.09274 5.27801 0.834677 5.01474 0.592742C4.62186 0.205645 4.15202 0 3.65789 0C3.16375 0 2.68581 0.205645 2.28078 0.592742L2.27268 0.600806L0.895582 1.98387C0.377143 2.5 0.0814712 3.12903 0.0166664 3.85887C-0.0805408 5.03629 0.267785 6.13306 0.535105 6.85081C1.19125 8.6129 2.17143 10.246 3.63358 11.996C5.40762 14.1048 7.54213 15.7702 9.98041 16.9435C10.912 17.3831 12.1554 17.9032 13.5447 17.9919C13.6297 17.996 13.7188 18 13.7998 18C14.7355 18 15.5212 17.6653 16.1369 17C16.1409 16.9919 16.149 16.9879 16.1531 16.9798C16.3637 16.7258 16.6067 16.496 16.8619 16.25C17.036 16.0847 17.2142 15.9113 17.3884 15.7298C17.7894 15.3145 18 14.8306 18 14.3347C18 13.8347 17.7853 13.3548 17.3763 12.9516L15.1526 10.7298Z"></path>
  </symbol>
  <symbol  xmlns="http://www.w3.org/2000/svg" viewBox="0 0 13 13" id="star">
    <path d="M12.1587 5.64929C12.4012 5.40577 12.4841 5.05155 12.3797 4.71947C12.2754 4.3874 12.0053 4.15336 11.6707 4.10276L8.70294 3.65683C8.57711 3.63785 8.46662 3.55562 8.41138 3.4386L7.08246 0.668132C6.93514 0.35503 6.6313 0.162109 6.2937 0.162109C5.95611 0.162109 5.65533 0.35503 5.50495 0.668132L4.1791 3.4386C4.12386 3.55562 4.01337 3.63785 3.88754 3.65683L0.919731 4.10276C0.585201 4.15336 0.312052 4.3874 0.207703 4.71947C0.103354 5.05155 0.189288 5.40577 0.431746 5.64929L2.58011 7.80621C2.67218 7.89793 2.71208 8.03076 2.6906 8.16043L2.1842 11.206C2.14123 11.4749 2.20875 11.7374 2.37755 11.9398C2.64149 12.2624 3.09572 12.3573 3.46401 12.1612L6.11263 10.7253C6.22312 10.6652 6.36429 10.6652 6.47478 10.7253L9.12954 12.1643C9.25844 12.2339 9.39655 12.2719 9.53773 12.2719C9.79554 12.2719 10.0441 12.1517 10.2129 11.9461C10.3817 11.7405 10.4493 11.478 10.4063 11.2124L9.89988 8.16675C9.8784 8.03708 9.92137 7.90425 10.0104 7.81254L12.1587 5.64929Z"></path>
  </symbol>
  <symbol  xmlns="http://www.w3.org/2000/svg" viewBox="0 0 26 26" id="user">
    <path d="M13 0C5.85 0 0 5.85 0 13C0 20.15 5.85 26 13 26C20.15 26 26 20.15 26 13C26 5.85 20.15 0 13 0ZM13 3.9C15.21 3.9 16.9 5.59 16.9 7.8C16.9 10.01 15.21 11.7 13 11.7C10.79 11.7 9.1 10.01 9.1 7.8C9.1 5.59 10.79 3.9 13 3.9ZM13 22.36C9.75 22.36 6.89 20.67 5.2 18.2C5.2 15.6 10.4 14.17 13 14.17C15.6 14.17 20.8 15.6 20.8 18.2C19.11 20.67 16.25 22.36 13 22.36Z" ></path>
  </symbol>
  <symbol  xmlns="http://www.w3.org/2000/svg" viewBox="0 0 23 13" id="vk">
    <path d="M19.0859 7.45457C18.714 6.99957 18.8204 6.79714 19.0859 6.39043C19.0907 6.38579 22.1603 2.27593 22.4766 0.882143L22.4785 0.881214C22.6357 0.373286 22.4785 0 21.7185 0H19.2037C18.5636 0 18.2684 0.320357 18.1103 0.678786C18.1103 0.678786 16.8299 3.64836 15.0186 5.57329C14.434 6.1295 14.1637 6.30779 13.8446 6.30779C13.6874 6.30779 13.443 6.1295 13.443 5.62157V0.881214C13.443 0.272071 13.2638 0 12.7338 0H8.7796C8.37804 0 8.13941 0.284143 8.13941 0.548786C8.13941 1.12636 9.04506 1.25914 9.13898 2.88414V6.40993C9.13898 7.1825 8.99427 7.32457 8.67322 7.32457C7.81835 7.32457 5.74349 4.34293 4.51391 0.930428C4.26569 0.268357 4.02322 0.000928504 3.37824 0.000928504H0.86253C0.144713 0.000928504 0 0.321286 0 0.679714C0 1.313 0.854863 4.46179 3.9753 8.62179C6.05496 11.4614 8.98373 13 11.648 13C13.2494 13 13.4449 12.6583 13.4449 12.0705C13.4449 9.35721 13.3002 9.10093 14.1024 9.10093C14.4742 9.10093 15.1144 9.27921 16.6094 10.6489C18.3182 12.2729 18.599 13 19.5555 13H22.0702C22.7871 13 23.1503 12.6583 22.9414 11.9841C22.4632 10.5662 19.2315 7.64957 19.0859 7.45457Z" ></path>
  </symbol>
  <symbol  xmlns="http://www.w3.org/2000/svg" viewBox="0 0 22 21" id="WhatsApp">
    <path fill-rule="evenodd" clip-rule="evenodd" d="M18.7946 3.05182C16.7265 1.08486 13.9761 0.00115356 11.046 0C5.00821 0 0.0943112 4.66796 0.0918825 10.4053C0.091073 12.2393 0.595415 14.0297 1.55404 15.6077L0 21L5.80695 19.5529C7.407 20.3821 9.20836 20.819 11.0416 20.8195H11.0461C17.0833 20.8195 21.9977 16.1512 22 10.4136C22.0012 7.63301 20.8629 5.01865 18.7946 3.05182ZM11.046 19.0621H11.0422C9.40858 19.0615 7.80637 18.6444 6.4083 17.8565L6.07599 17.669L2.63005 18.5278L3.54982 15.3361L3.33327 15.0089C2.42187 13.6318 1.9406 12.0401 1.94141 10.4059C1.9433 5.63721 6.02768 1.75752 11.0497 1.75752C13.4815 1.75829 15.7675 2.65909 17.4864 4.29395C19.2053 5.92881 20.1514 8.10187 20.1506 10.413C20.1485 15.1821 16.0643 19.0621 11.046 19.0621ZM16.04 12.5844C15.7664 12.4541 14.4207 11.8253 14.1697 11.7384C13.9191 11.6516 13.7364 11.6084 13.5541 11.8686C13.3715 12.1288 12.8471 12.7146 12.6873 12.888C12.5276 13.0616 12.3681 13.0833 12.0944 12.9531C11.8206 12.823 10.9387 12.5483 9.89323 11.6625C9.07964 10.9731 8.53037 10.1216 8.37062 9.86144C8.21114 9.60099 8.36927 9.47384 8.4907 9.3308C8.78699 8.98127 9.08369 8.61482 9.1749 8.4414C9.26624 8.26785 9.2205 8.11597 9.15196 7.98587C9.08369 7.85577 8.53631 6.57596 8.30829 6.05519C8.08593 5.54839 7.86048 5.61683 7.69236 5.60889C7.53288 5.60132 7.35033 5.59979 7.16778 5.59979C6.98537 5.59979 6.68881 5.66477 6.43785 5.92522C6.18703 6.18554 5.48003 6.81449 5.48003 8.09431C5.48003 9.37412 6.46079 10.6105 6.5976 10.784C6.73441 10.9576 8.52767 13.5839 11.2732 14.71C11.9262 14.9781 12.436 15.138 12.8336 15.2578C13.4893 15.4557 14.0858 15.4278 14.5575 15.3609C15.0834 15.2861 16.1767 14.7318 16.405 14.1245C16.633 13.5171 16.633 12.9966 16.5645 12.888C16.4962 12.7796 16.3137 12.7146 16.04 12.5844Z" ></path>
  </symbol>
</svg>