<svg width="248" height="84" viewBox="0 0 248 84" fill="none" xmlns="http://www.w3.org/2000/svg">
<g clip-path="url(#clip0_1_700)">
<path fill-rule="evenodd" clip-rule="evenodd" d="M43.8828 45.6218C19.0422 26.6143 0.315866 42.1714 0 64.831C17.1245 47.9221 33.1208 56.1949 43.8828 45.6218ZM45.417 49.3143C42.3035 83.4753 18.3654 55.751 0.947598 67.7164C10.6492 55.2062 29.1499 59.2418 45.417 49.3143Z" fill="white"/>
<path fill-rule="evenodd" clip-rule="evenodd" d="M49.3639 52.7041C45.393 60.8761 47.762 67.9181 57.3057 72.4985C63.4876 75.4646 69.9629 78.7738 76.0546 83.1927C65.6761 74.0723 63.1041 58.4548 49.3639 52.7041ZM53.2671 51.2715C74.8137 49.4756 89.7722 65.8398 81.2664 83.9998C68.925 75.0409 68.722 59.0601 53.2671 51.2715Z" fill="white"/>
<path fill-rule="evenodd" clip-rule="evenodd" d="M45.4833 41.9496C46.2955 33.6767 42.9113 26.9575 37.5867 20.9042C33.7963 16.5861 32.5779 9.64497 33.9542 0C20.2366 16.5659 25.9447 32.2642 45.4833 41.9496ZM35.353 1.67475C39.73 10.7144 45.6187 18.2407 52.6805 24.5361C56.674 28.0673 54.5983 33.6968 50.1085 40.8398C50.4244 26.3723 32.1267 17.5748 35.353 1.67475Z" fill="white"/>
<path d="M85.9852 45.501V44.3711C84.3608 44.1895 83.368 43.6245 82.4204 41.7883C81.4277 39.7907 80.6606 37.8738 80.1191 36.8448C78.9685 34.5849 77.5471 33.7172 75.6293 33.2733V33.1724C76.1708 32.8698 77.7727 31.8609 78.9685 29.4597C80.5478 26.2918 81.2021 25.7067 82.5784 25.7067H83.2778C83.9321 25.7067 84.7443 25.3031 84.7443 24.5363C84.7443 23.6082 83.9321 22.9221 82.6009 22.9221C80.8637 22.9625 79.7581 23.9512 78.6752 26.3322C77.4568 29.0763 76.7574 30.3879 75.7196 31.417C74.5689 32.4864 73.3055 32.8698 71.6584 32.8698V28.0473C71.6584 25.0206 71.9292 24.7785 74.4561 24.5767V23.4467H63.9648V24.5767C66.5369 24.7785 66.8076 25.0206 66.8076 28.0473V40.8601C66.8076 43.9272 66.5369 44.1491 63.9648 44.3711V45.501H74.4561V44.3711C71.9292 44.1693 71.6584 43.9272 71.6584 40.84V34.1006C73.5311 34.0602 74.4335 34.9279 75.3811 37.5712C76.1031 39.5688 76.7574 41.4251 77.2312 42.3735C78.2014 44.472 79.2392 45.501 81.879 45.501H85.9852ZM87.9707 23.4467V24.5767C90.3622 24.8188 90.6104 25.1013 90.6104 27.906V41.1628C90.6104 43.9877 90.3397 44.25 87.7676 44.4921V45.4809H98.6876V44.4921C95.6868 44.25 95.4612 43.9675 95.4612 41.1628V36.3202L97.6948 36.865C98.1235 36.865 98.5071 36.8649 99.0485 36.8044C103.087 36.3605 106.584 34.2217 106.584 29.7624C106.584 27.4621 105.546 25.747 103.809 24.7179C102.32 23.8301 100.425 23.4467 97.4692 23.4467H87.9707ZM95.4612 26.09C95.4612 25.5452 95.5289 25.1619 95.8448 25.0004C96.0704 24.8188 96.4314 24.6978 97.0631 24.6978C99.0711 24.6978 101.282 25.9084 101.282 29.9238C101.282 34.5647 98.3717 35.3516 97.2436 35.3516C96.5216 35.3516 95.935 35.2104 95.4386 35.049V26.09H95.4612ZM133.275 45.501V44.3711C130.635 44.1693 130.364 43.8465 130.364 40.84V27.9666C130.364 25.0811 130.68 24.7987 133.32 24.5969V23.4669H125.107V23.8705C125.107 24.1731 125.04 24.5162 124.769 24.9601L116.624 41.869H116.557C116.76 38.0151 116.76 36.0578 116.76 34.5849V28.1683C116.76 25.1013 117.075 24.7987 119.602 24.5969V23.4669H108.953V24.5969C111.638 24.7987 111.954 25.1417 111.954 28.2087V40.7794C111.954 43.8666 111.683 44.1895 108.998 44.3913V45.5212H117.256V45.1177C117.256 44.7141 117.256 44.2904 117.527 43.7456L125.626 26.7761H125.739C125.581 30.4081 125.581 32.1434 125.581 33.233V40.8601C125.581 43.8868 125.311 44.1895 122.784 44.3913V45.5212H133.275V45.501ZM155.092 39.6293C153.445 42.6963 151.527 44.5325 148.797 44.5325C144.646 44.5325 141.533 40.275 141.533 34.1208C141.533 28.9956 144.263 24.3547 148.594 24.3547C151.121 24.3547 153.31 25.5251 154.506 29.2378L155.814 28.9956C155.611 27.1393 155.431 25.5856 155.16 23.7091C154.122 23.5073 151.776 22.9827 149.361 22.9827C141.172 22.9827 135.96 27.8253 135.96 34.8068C135.96 40.1741 139.412 45.9449 148.414 45.9449C150.805 45.9449 153.648 45.3598 154.596 45.1177C155.182 43.9473 155.95 41.5462 156.401 40.0329L155.092 39.6293ZM177.722 28.8342C177.564 26.7357 177.383 23.9915 177.338 22.5791H176.413C175.827 23.2248 175.33 23.4467 174.45 23.4467H161.161C160.124 23.4467 159.695 23.2651 159.131 22.5791H158.206C158.161 24.2942 157.935 26.6752 157.777 28.9351H159.086C159.514 27.4218 159.898 26.2918 160.439 25.7067C161.026 25.061 161.816 24.8188 163.936 24.8188H165.313V41.0619C165.313 43.8868 164.997 44.1491 162.132 44.3509V45.4809H173.503V44.3509C170.502 44.1491 170.209 43.8666 170.209 41.0619V24.8188H171.946C173.48 24.8188 174.45 25.0004 175.059 25.5654C175.646 26.1506 176.03 27.1796 176.481 28.8947L177.722 28.8342ZM202.269 45.501V44.3711C200.148 44.1693 199.697 43.7859 198.501 40.7391C196.155 34.827 194.079 28.9553 191.823 23.0028L190.018 23.3862L182.798 41.183C181.76 43.7859 181.174 44.1693 178.985 44.3711V45.501H186.927V44.3711C184.355 44.0684 184.197 43.6447 184.784 41.8287C185.212 40.4969 185.618 39.3468 185.934 38.4993H192.5C192.951 39.6293 193.425 41.0014 193.763 42.0305C194.372 43.7052 194.192 44.1289 192.139 44.3711V45.501H202.269ZM191.891 36.7439H186.521C187.446 34.262 188.213 31.8407 189.206 29.2983H189.319L191.891 36.7439ZM224.741 45.501V44.3711C222.169 44.1693 221.898 43.8465 221.898 40.7996V27.5025C221.898 25.0206 222.169 24.7785 224.741 24.5767V23.4467H205.766V24.5767C208.451 24.7583 209.06 25.1215 209.06 26.5743C209.06 32.5873 208.225 37.4905 206.804 40.6584C205.992 42.4542 205.067 43.8465 203.352 45.0168V45.7432C203.803 45.9248 204.661 46.0458 205.586 46.0458C206.466 46.0458 207.21 45.5212 207.932 44.3509C210.121 40.9812 211.091 33.9795 211.091 26.0699C211.091 25.0408 211.249 24.7987 212.444 24.7987H215.829C216.979 24.7987 217.025 24.9399 217.025 26.5138V40.7794C217.025 43.8464 216.754 44.1491 214.182 44.3509V45.4809H224.741V45.501ZM248.002 45.501V44.3711C245.43 44.1693 245.159 43.8465 245.159 40.7996V27.5025C245.159 25.0206 245.43 24.7785 248.002 24.5767V23.4467H229.027V24.5767C231.712 24.7583 232.321 25.1215 232.321 26.5743C232.321 32.5873 231.487 37.4905 230.065 40.6584C229.253 42.4542 228.328 43.8465 226.613 45.0168V45.7432C227.065 45.9248 227.922 46.0458 228.847 46.0458C229.727 46.0458 230.471 45.5212 231.193 44.3509C233.382 40.9812 234.352 33.9795 234.352 26.0699C234.352 25.0408 234.51 24.7987 235.706 24.7987H239.09C240.241 24.7987 240.286 24.9399 240.286 26.5138V40.7794C240.286 43.8464 240.015 44.1491 237.443 44.3509V45.4809H248.002V45.501Z" fill="white"/>
<path d="M73.778 9.58465C73.6877 8.73719 73.62 7.32474 73.5975 6.98172H65.3398V7.52652C66.6484 7.62741 66.7838 7.76865 66.7838 9.38288V15.8599C66.7838 17.2926 66.6484 17.4338 65.3398 17.5347V18.0997H70.9126V17.5347C69.3784 17.4338 69.2656 17.2926 69.2656 15.8599V8.25292C69.2656 7.66777 69.2656 7.66777 69.9425 7.66777H70.8901C71.8377 7.66777 72.1987 7.80901 72.492 8.23274C72.7401 8.57576 72.8755 9.01968 73.1237 9.64519L73.778 9.58465ZM74.9286 6.98172V7.5467C76.1244 7.66777 76.2598 7.80901 76.2598 9.22145V15.9205C76.2598 17.3329 76.1244 17.4742 74.8158 17.5952V18.0997H80.3209V17.6154C78.8093 17.4943 78.6965 17.3531 78.6965 15.9406V13.479L79.8246 13.7615C80.0276 13.7615 80.2307 13.7615 80.5014 13.7211C82.532 13.4991 84.2918 12.4297 84.2918 10.1698C84.2918 8.9995 83.7729 8.13185 82.893 7.62741C82.171 7.16332 81.2234 6.98172 79.7343 6.98172H74.9286ZM78.719 8.31345C78.719 8.03096 78.7641 7.84936 78.9221 7.76865C79.0349 7.68794 79.2154 7.60723 79.5538 7.60723C80.5691 7.60723 81.6972 8.21256 81.6972 10.2505C81.6972 12.5911 80.2307 12.9947 79.6666 12.9947C79.3056 12.9947 79.0123 12.9342 78.7642 12.8333V8.31345H78.719ZM96.2947 6.98172H92.3689V7.5467L93.0684 7.68794C93.6324 7.80901 93.6775 8.01079 93.4068 8.73719C92.8428 10.3918 92.2336 11.7639 91.6018 13.3175L89.3682 8.47488C89.1426 7.99061 89.1652 7.78883 89.5487 7.68794L90.1579 7.5467V6.98172H84.9912V7.5467C86.1644 7.70812 86.3449 7.9099 86.6834 8.57576C87.1572 9.44341 89.278 13.7816 89.7292 14.6896C90.0225 15.295 90.1579 15.6783 90.1579 15.981C90.1579 16.6267 89.639 17.1715 89.1877 17.1715C88.917 17.1715 88.5786 17.0302 88.3078 16.8688C87.8791 16.6469 87.5407 16.6267 87.2474 16.8083C86.9992 16.9294 86.7962 17.2118 86.7962 17.5347C86.7736 18.14 87.4956 18.5436 88.195 18.5436C89.1877 18.5436 90.2256 18.0997 91.3311 15.7389C91.9628 14.4475 93.6098 10.6137 94.2641 9.20128C94.8282 7.99061 95.0313 7.74848 96.2947 7.5467V6.98172ZM108.862 18.1198V17.5347C107.553 17.4338 107.395 17.2926 107.395 15.6985V9.3627C107.395 7.78883 107.553 7.64759 108.884 7.5467V6.98172H96.8813V7.5467C98.2802 7.64759 98.4155 7.78883 98.4155 9.34252V15.6985C98.4155 17.2926 98.2802 17.4338 96.949 17.5347V18.0997H102.228V17.5347C101.055 17.4338 100.92 17.2926 100.92 15.6985V8.31345C100.92 7.70812 100.965 7.66777 101.619 7.66777H104.259C104.913 7.66777 104.936 7.68794 104.936 8.35381V15.6985C104.936 17.2926 104.801 17.4338 103.582 17.5347V18.0997H108.862V18.1198ZM122.083 18.1198V17.5347C120.774 17.4338 120.616 17.2926 120.616 15.6985V9.3627C120.616 7.78883 120.774 7.64759 122.105 7.5467V6.98172H110.103V7.5467C111.501 7.64759 111.637 7.78883 111.637 9.34252V15.6985C111.637 17.2926 111.501 17.4338 110.17 17.5347V18.0997H115.45V17.5347C114.277 17.4338 114.141 17.2926 114.141 15.6985V8.31345C114.141 7.70812 114.186 7.66777 114.841 7.66777H117.48C118.135 7.66777 118.157 7.68794 118.157 8.35381V15.6985C118.157 17.2926 118.022 17.4338 116.803 17.5347V18.0997H122.083V18.1198ZM134.718 18.1198V17.5347C133.657 17.4338 133.409 17.232 132.822 15.6985C131.649 12.7122 130.589 9.74607 129.438 6.75977L128.536 6.94137L124.881 15.9205C124.362 17.232 124.068 17.4338 122.963 17.5347V18.0997H126.979V17.5347C125.67 17.3733 125.603 17.1715 125.896 16.2433C126.099 15.5573 126.325 14.9923 126.482 14.5686H129.799C130.025 15.1335 130.273 15.8398 130.431 16.3644C130.747 17.2118 130.634 17.4136 129.619 17.5347V18.0997H134.718V18.1198ZM129.483 13.6807H126.776C127.25 12.4297 127.633 11.1989 128.129 9.92768H128.197L129.483 13.6807Z" fill="white"/>
</g>
<defs>
<clipPath id="clip0_1_700">
<rect width="248" height="84" fill="white"/>
</clipPath>
</defs>
</svg>
