<svg width="88" height="83" viewBox="0 0 88 83" fill="none" xmlns="http://www.w3.org/2000/svg">
<path d="M63.8458 40.137L66.0507 27.853L63.2159 23.5484L53.7666 23.2334L39.3828 25.9632L40.8527 41.6069L49.252 42.0269L47.2572 46.7515L58.2813 46.4365L63.8458 40.137Z" fill="white"/>
<path d="M64.4744 19.2441L59.8547 15.5694L46.1008 15.0444L40.1163 19.7691L39.0664 24.8086L46.1008 27.4334H50.0905L61.5346 24.8086L65.9442 26.4885L64.4744 19.2441Z" fill="#FFCC34"/>
<path d="M24.4736 75.2048L10.4047 55.3614L1.48047 62.2908L15.4443 81.3993L24.4736 75.2048Z" fill="#00728F"/>
<path d="M59.1208 56.3063L70.7749 50.5318L67.8351 47.592L62.1656 45.7021L48.7267 47.592L36.1277 49.4818L31.928 56.3063H59.1208Z" fill="#00728F"/>
<path d="M32.1393 42.0273H38.5438L48.203 42.5523L50.0929 43.4972L45.7882 47.8019L39.6987 48.2218L36.129 48.6418L31.8243 56.5162L59.5421 56.9361L78.3356 47.8019H84.1101L85.16 51.6866L83.4802 54.8363L85.16 58.721L82.4303 61.7657L66.7865 65.3355L59.9621 69.6401L52.0877 72.9998L34.6591 73.4198L22.5851 71.005L12.0859 56.3062L32.1393 42.0273Z" fill="white"/>
<path d="M70.9171 52.8561C70.1254 52.8561 69.485 52.2156 69.485 51.424V50.8801C69.485 49.2045 67.0954 47.5624 64.6617 47.5624H58.8031C58.0115 47.5624 57.3711 46.922 57.3711 46.1303C57.3711 45.3387 58.0115 44.6982 58.8031 44.6982H64.6617C68.2986 44.6982 72.3492 47.2369 72.3492 50.8801V51.424C72.3492 52.2135 71.7066 52.8561 70.9171 52.8561Z" fill="#00485A"/>
<path d="M65.1874 35.3834C65.1475 35.3834 65.1076 35.3834 65.0698 35.3792C64.2803 35.3141 63.6944 34.6233 63.7595 33.8359L64.4755 25.0922C64.4692 20.1576 60.6538 16.0461 55.9628 16.0461H48.6281C43.9371 16.0461 40.1196 20.1555 40.1196 25.2077L40.8314 33.8338C40.8965 34.6212 40.3107 35.3121 39.5212 35.3771C38.738 35.4422 38.0429 34.8564 37.9778 34.0669L37.2617 25.3232C37.2575 18.5743 42.358 13.1777 48.6302 13.1777H55.965C62.2372 13.1777 67.3376 18.5743 67.3376 25.2056L66.6174 34.0669C66.5523 34.8186 65.9265 35.3834 65.1874 35.3834Z" fill="#00485A"/>
<path d="M52.2941 48.9924C50.5954 48.9924 48.8839 48.7194 47.3448 48.2029C46.5951 47.9509 46.1899 47.1382 46.4439 46.3886C46.6959 45.639 47.5085 45.2379 48.2561 45.4857C49.5055 45.9056 50.9019 46.1282 52.2941 46.1282C55.5405 46.1282 58.5452 44.9523 60.1327 43.0604C62.2976 40.4776 63.7529 36.7924 63.7529 33.8925V28.1201C63.7529 27.3683 63.5996 26.8644 63.2951 26.6313C62.2158 25.7914 58.7847 26.6628 55.7589 27.4292C52.9913 28.1327 50.1333 28.8592 47.5421 28.8592C44.3189 28.8592 42.1477 27.7001 40.8479 26.9022C40.8374 27.2235 40.8332 27.6224 40.8332 28.1201V33.8925C40.8332 35.9818 41.6123 38.5835 42.9163 40.8493C43.311 41.5359 43.0758 42.4094 42.3891 42.8042C41.7025 43.199 40.829 42.9638 40.4321 42.2771C38.8657 39.5558 37.9648 36.4984 37.9648 33.8925V28.1201C37.9648 25.6843 38.0195 24.2753 39.1534 23.6516C40.1634 23.0847 41.1209 23.6936 41.9629 24.2207C43.0821 24.9283 44.7746 25.993 47.5401 25.993C49.7722 25.993 52.4558 25.3105 55.0512 24.6512C59.2467 23.5865 62.8646 22.6647 65.0527 24.3677C66.09 25.174 66.6171 26.436 66.6171 28.1201V33.8925C66.6171 37.4727 64.933 41.7942 62.3271 44.9019C60.1769 47.4637 56.4245 48.9924 52.2941 48.9924Z" fill="#00485A"/>
<path d="M65.3648 66.7364C64.7096 66.7364 64.1174 66.2828 63.9683 65.6172C63.7961 64.8444 64.2812 64.078 65.0539 63.9058L82.0542 60.0988C82.6863 59.9875 83.1797 59.6726 83.5093 59.2022C83.839 58.7339 83.9671 58.1628 83.8663 57.5979C83.734 56.8462 83.207 56.2162 82.493 55.9496C81.7497 55.6745 81.3717 54.8513 81.6468 54.108C81.9218 53.3668 82.7492 52.9846 83.4863 53.2639C85.1535 53.8812 86.3798 55.3532 86.6863 57.1024C86.9173 58.4211 86.6213 59.7523 85.8528 60.8485C85.0842 61.9446 83.9335 62.6753 82.6127 62.9084L65.6797 66.7007C65.5748 66.7259 65.4677 66.7364 65.3648 66.7364Z" fill="#00485A"/>
<path d="M45.9866 74.7785H35.1053C35.0003 74.7785 34.8974 74.768 34.7945 74.7449L21.9036 71.8807C21.1309 71.7085 20.6437 70.9442 20.8159 70.1715C20.986 69.3987 21.7504 68.9179 22.5231 69.0837L35.2628 71.9143H45.9866C51.5763 71.9143 57.059 69.9909 61.4267 66.4989C61.4645 66.4674 61.5064 66.4401 61.5463 66.4128L82.7483 52.7786C82.8176 52.7345 82.889 52.6946 82.9646 52.6631C83.4938 52.4384 83.9011 52.0226 84.1174 51.4914C84.3336 50.958 84.3274 50.3742 84.1049 49.8472C83.6408 48.7553 82.3766 48.245 81.2868 48.707L60.0051 57.4801C59.8329 57.5515 59.646 57.5872 59.4591 57.5872H32.2432C31.7267 57.5872 31.25 57.31 30.998 56.8606C30.7439 56.4113 30.7502 55.859 31.0169 55.418L35.3131 48.2555C35.5714 47.8251 36.0376 47.5605 36.5415 47.5605H42.272C44.9367 47.5605 47.1814 45.7315 47.8197 43.2621H32.7115L13.1705 57.5935C12.5321 58.0617 11.6376 57.9189 11.1672 57.2848C10.7011 56.6464 10.8375 55.7498 11.4758 55.2816L31.3949 40.6751C31.6406 40.4945 31.9366 40.3979 32.2411 40.3979H49.4303C50.2219 40.3979 50.8624 41.0384 50.8624 41.83C50.8624 46.5694 47.0071 50.4246 42.2678 50.4246H37.35L34.7713 54.7209H59.1736L80.1802 46.0612C82.7126 44.984 85.6608 46.1809 86.7401 48.7238C87.263 49.9564 87.2756 51.3192 86.7737 52.5602C86.2887 53.7613 85.3794 54.7104 84.2056 55.2459L63.159 68.7793C58.2958 72.6472 52.2021 74.7785 45.9866 74.7785Z" fill="#00485A"/>
<path d="M15.4972 82.8838C15.4216 82.8838 15.344 82.8775 15.2684 82.8649C14.8925 82.804 14.5586 82.5961 14.336 82.2896L0.271385 62.7779C0.0488032 62.4714 -0.0436304 62.085 0.0193646 61.7112C0.0802597 61.3375 0.28809 61.0015 0.594665 60.7789L9.89062 54.0783C10.5353 53.6206 11.4277 53.7613 11.8897 54.4038L25.9543 73.9133C26.4184 74.5559 26.2735 75.4504 25.6309 75.9145L16.3371 82.6171C16.0894 82.7893 15.7954 82.8838 15.4972 82.8838ZM3.42944 62.2656L15.8206 79.4506L22.7921 74.4257L10.4009 57.2386L3.42944 62.2656Z" fill="#00485A"/>
<path d="M19.3456 73.3462C19.3456 74.9274 18.0626 76.2104 16.4814 76.2104C14.9002 76.2104 13.6172 74.9274 13.6172 73.3462C13.6172 71.763 14.9002 70.48 16.4814 70.48C18.0647 70.48 19.3456 71.763 19.3456 73.3462Z" fill="#00485A"/>
<path d="M52.2954 8.88562C51.5038 8.88562 50.8633 8.24517 50.8633 7.45354V1.7231C50.8633 0.931464 51.5038 0.291016 52.2954 0.291016C53.0871 0.291016 53.7275 0.931464 53.7275 1.7231V7.45354C53.7254 8.24307 53.085 8.88562 52.2954 8.88562Z" fill="#00485A"/>
<path d="M58.0247 8.88533C57.6573 8.88533 57.2919 8.74674 57.0127 8.46536C56.4541 7.90681 56.4541 6.99968 57.0127 6.44112L62.027 1.42673C62.5877 0.868174 63.4927 0.868174 64.0513 1.42673C64.612 1.98738 64.612 2.89241 64.0513 3.45307L59.039 8.46536C58.7576 8.74464 58.3922 8.88533 58.0247 8.88533Z" fill="#00485A"/>
<path d="M46.5653 8.88559C46.1979 8.88559 45.8324 8.747 45.5532 8.46563L41.2549 4.16937C40.6963 3.61082 40.6963 2.70369 41.2549 2.14304C41.8134 1.58448 42.7205 1.58448 43.2812 2.14304L47.5795 6.44139C48.138 7.00205 48.138 7.90707 47.5795 8.46563C47.2981 8.74491 46.9307 8.88559 46.5653 8.88559Z" fill="#00485A"/>
</svg>
