<svg width="172" height="66" viewBox="0 0 172 66" fill="none" xmlns="http://www.w3.org/2000/svg">
<g clip-path="url(#clip0_1_1321)">
<path fill-rule="evenodd" clip-rule="evenodd" d="M30.4349 35.8459C13.2067 20.9114 0.219068 33.1348 0 50.9388C11.8766 37.6532 22.9709 44.1533 30.4349 35.8459ZM31.4989 38.7471C29.3395 65.5879 12.7373 43.8046 0.657205 53.2059C7.38574 43.3765 20.2169 46.5473 31.4989 38.7471Z" fill="#00728F"/>
<path fill-rule="evenodd" clip-rule="evenodd" d="M34.2374 41.4106C31.4834 47.8315 33.1264 53.3645 39.7454 56.9633C44.0329 59.2939 48.5238 61.8939 52.7487 65.3659C45.5507 58.1999 43.7669 45.929 34.2374 41.4106ZM36.9444 40.285C51.888 38.874 62.2625 51.7315 56.3633 66.0001C47.804 58.9609 47.6631 46.4046 36.9444 40.285Z" fill="#00728F"/>
<path fill-rule="evenodd" clip-rule="evenodd" d="M31.5442 32.9604C32.1076 26.4602 29.7604 21.1809 26.0675 16.4247C23.4387 13.0319 22.5937 7.57819 23.5482 0C14.0344 13.0161 17.9933 25.3505 31.5442 32.9604ZM24.5184 1.31588C27.5541 8.41845 31.6381 14.332 36.5359 19.2784C39.3055 22.0528 37.8659 26.4761 34.752 32.0884C34.9711 20.7211 22.2808 13.8088 24.5184 1.31588Z" fill="#00728F"/>
<path d="M59.6355 35.7503V34.8625C58.5088 34.7198 57.8203 34.2759 57.1631 32.8332C56.4746 31.2637 55.9426 29.7575 55.5671 28.949C54.769 27.1733 53.7832 26.4916 52.4532 26.1428V26.0636C52.8287 25.8258 53.9397 25.0331 54.769 23.1464C55.8644 20.6574 56.3182 20.1976 57.2727 20.1976H57.7578C58.2115 20.1976 58.7749 19.8805 58.7749 19.2781C58.7749 18.5488 58.2115 18.0098 57.2883 18.0098C56.0834 18.0415 55.3167 18.8183 54.5656 20.6891C53.7206 22.8452 53.2356 23.8757 52.5158 24.6843C51.7177 25.5245 50.8414 25.8258 49.6992 25.8258V22.0367C49.6992 19.6586 49.8869 19.4683 51.6395 19.3098V18.422H44.3633V19.3098C46.1471 19.4683 46.3349 19.6586 46.3349 22.0367V32.1039C46.3349 34.5137 46.1471 34.6881 44.3633 34.8625V35.7503H51.6395V34.8625C49.8869 34.704 49.6992 34.5137 49.6992 32.0881V26.7928C50.9979 26.7611 51.6238 27.4429 52.281 29.5197C52.7818 31.0893 53.2356 32.5478 53.5642 33.293C54.237 34.9418 54.9568 35.7503 56.7876 35.7503H59.6355ZM61.0125 18.422V19.3098C62.6711 19.5 62.8433 19.722 62.8433 21.9257V32.3417C62.8433 34.5613 62.6555 34.7674 60.8717 34.9576V35.7345H68.4452V34.9576C66.364 34.7674 66.2075 34.5454 66.2075 32.3417V28.5368L67.7567 28.9648C68.054 28.9648 68.32 28.9648 68.6955 28.9173C71.4965 28.5685 73.9219 26.888 73.9219 23.3842C73.9219 21.5769 73.2021 20.2293 71.9972 19.4208C70.9644 18.7232 69.65 18.422 67.6002 18.422H61.0125ZM66.2075 20.4988C66.2075 20.0708 66.2545 19.7695 66.4735 19.6427C66.63 19.5 66.8804 19.4049 67.3185 19.4049C68.7112 19.4049 70.2446 20.3561 70.2446 23.5111C70.2446 27.1575 68.2261 27.7758 67.4437 27.7758C66.943 27.7758 66.5361 27.6648 66.1919 27.538V20.4988H66.2075ZM92.4332 35.7503V34.8625C90.6024 34.704 90.4146 34.4503 90.4146 32.0881V21.9732C90.4146 19.7061 90.6337 19.4842 92.4645 19.3256V18.4378H86.7687V18.7549C86.7687 18.9927 86.7217 19.2622 86.534 19.611L80.8851 32.8966H80.8382C80.979 29.8685 80.979 28.3307 80.979 27.1733V22.1318C80.979 19.722 81.1981 19.4842 82.9506 19.3256V18.4378H75.5649V19.3256C77.427 19.4842 77.646 19.7537 77.646 22.1635V32.0405C77.646 34.4662 77.4583 34.7198 75.5962 34.8784V35.7662H81.3233V35.4491C81.3233 35.132 81.3233 34.7991 81.511 34.371L87.1286 21.0379H87.2068C87.0973 23.8916 87.0973 25.255 87.0973 26.1111V32.1039C87.0973 34.482 86.9095 34.7198 85.1569 34.8784V35.7662H92.4332V35.7503ZM107.565 31.1368C106.422 33.5466 105.092 34.9893 103.199 34.9893C100.32 34.9893 98.1602 31.6442 98.1602 26.8087C98.1602 22.7818 100.054 19.1354 103.058 19.1354C104.811 19.1354 106.328 20.0549 107.158 22.972L108.065 22.7818C107.924 21.3232 107.799 20.1025 107.611 18.6281C106.892 18.4695 105.264 18.0573 103.59 18.0573C97.9099 18.0573 94.2952 21.8623 94.2952 27.3477C94.2952 31.5649 96.6893 36.0991 102.933 36.0991C104.591 36.0991 106.563 35.6393 107.22 35.4491C107.627 34.5296 108.159 32.643 108.472 31.4539L107.565 31.1368ZM123.259 22.655C123.15 21.0061 123.024 18.85 122.993 17.7402H122.352C121.945 18.2476 121.601 18.422 120.99 18.422H111.774C111.054 18.422 110.757 18.2793 110.365 17.7402H109.724C109.693 19.0878 109.536 20.9586 109.427 22.7342H110.334C110.631 21.5452 110.897 20.6574 111.273 20.1976C111.68 19.6903 112.228 19.5 113.698 19.5H114.653V32.2625C114.653 34.482 114.434 34.6881 112.447 34.8466V35.7345H120.333V34.8466C118.252 34.6881 118.049 34.4662 118.049 32.2625V19.5H119.253C120.317 19.5 120.99 19.6427 121.413 20.0866C121.82 20.5464 122.086 21.3549 122.399 22.7025L123.259 22.655ZM140.284 35.7503V34.8625C138.813 34.704 138.5 34.4027 137.671 32.0088C136.043 27.3636 134.604 22.7501 133.039 18.0732L131.787 18.3744L126.78 32.3576C126.06 34.4027 125.653 34.704 124.135 34.8625V35.7503H129.643V34.8625C127.86 34.6247 127.75 34.2918 128.157 32.8649C128.454 31.8185 128.736 30.9149 128.955 30.249H133.508C133.821 31.1368 134.15 32.2149 134.385 33.0234C134.807 34.3393 134.682 34.6723 133.258 34.8625V35.7503H140.284ZM133.086 28.8697H129.362C130.003 26.9197 130.535 25.0172 131.224 23.0196H131.302L133.086 28.8697ZM155.869 35.7503V34.8625C154.085 34.704 153.897 34.4503 153.897 32.0564V21.6086C153.897 19.6586 154.085 19.4683 155.869 19.3098V18.422H142.709V19.3098C144.571 19.4525 144.994 19.7378 144.994 20.8793C144.994 25.6038 144.415 29.4563 143.429 31.9454C142.866 33.3564 142.224 34.4503 141.035 35.3698V35.9406C141.348 36.0833 141.943 36.1784 142.584 36.1784C143.194 36.1784 143.711 35.7662 144.212 34.8466C145.729 32.199 146.402 26.6977 146.402 20.483C146.402 19.6744 146.512 19.4842 147.341 19.4842H149.688C150.486 19.4842 150.518 19.5951 150.518 20.8318V32.0405C150.518 34.4503 150.33 34.6881 148.546 34.8466V35.7345H155.869V35.7503ZM172.002 35.7503V34.8625C170.218 34.704 170.03 34.4503 170.03 32.0564V21.6086C170.03 19.6586 170.218 19.4683 172.002 19.3098V18.422H158.842V19.3098C160.704 19.4525 161.127 19.7378 161.127 20.8793C161.127 25.6038 160.548 29.4563 159.562 31.9454C158.999 33.3564 158.357 34.4503 157.168 35.3698V35.9406C157.481 36.0833 158.075 36.1784 158.717 36.1784C159.327 36.1784 159.844 35.7662 160.344 34.8466C161.862 32.199 162.535 26.6977 162.535 20.483C162.535 19.6744 162.645 19.4842 163.474 19.4842H165.821C166.619 19.4842 166.65 19.5951 166.65 20.8318V32.0405C166.65 34.4503 166.463 34.6881 164.679 34.8466V35.7345H172.002V35.7503Z" fill="#00728F"/>
<path d="M51.1687 7.53059C51.1061 6.86472 51.0591 5.75495 51.0435 5.48543H45.3164V5.91349C46.224 5.99276 46.3179 6.10373 46.3179 7.37205V12.4612C46.3179 13.5868 46.224 13.6978 45.3164 13.777V14.221H49.1814V13.777C48.1174 13.6978 48.0391 13.5868 48.0391 12.4612V6.48423C48.0391 6.02446 48.0391 6.02446 48.5085 6.02446H49.1658C49.823 6.02446 50.0733 6.13544 50.2767 6.46837C50.4489 6.73789 50.5428 7.08668 50.7149 7.57815L51.1687 7.53059ZM51.9667 5.48543V5.92934C52.796 6.02446 52.8899 6.13544 52.8899 7.24522V12.5087C52.8899 13.6185 52.796 13.7295 51.8885 13.8246V14.221H55.7065V13.8405C54.6581 13.7453 54.5799 13.6344 54.5799 12.5246V10.5904L55.3623 10.8124C55.5031 10.8124 55.6439 10.8124 55.8317 10.7807C57.24 10.6063 58.4605 9.766 58.4605 7.99035C58.4605 7.07082 58.1006 6.3891 57.4904 5.99276C56.9896 5.62811 56.3324 5.48543 55.2997 5.48543H51.9667ZM54.5955 6.53179C54.5955 6.30983 54.6268 6.16715 54.7363 6.10373C54.8146 6.04032 54.9398 5.9769 55.1745 5.9769C55.8786 5.9769 56.661 6.45252 56.661 8.05377C56.661 9.89283 55.6439 10.2099 55.2527 10.2099C55.0024 10.2099 54.7989 10.1623 54.6268 10.0831V6.53179H54.5955ZM66.7851 5.48543H64.0624V5.92934L64.5475 6.04032C64.9387 6.13544 64.97 6.29398 64.7822 6.86472C64.391 8.16475 63.9685 9.24282 63.5304 10.4636L61.9813 6.65862C61.8248 6.27813 61.8404 6.11959 62.1064 6.04032L62.5289 5.92934V5.48543H58.9456V5.92934C59.7593 6.05617 59.8845 6.21471 60.1192 6.73789C60.4478 7.41961 61.9187 10.8282 62.2316 11.5416C62.435 12.0173 62.5289 12.3185 62.5289 12.5563C62.5289 13.0636 62.169 13.4917 61.8561 13.4917C61.6683 13.4917 61.4336 13.3807 61.2458 13.2539C60.9485 13.0795 60.7138 13.0636 60.5104 13.2063C60.3382 13.3014 60.1974 13.5234 60.1974 13.777C60.1818 14.2527 60.6825 14.5697 61.1676 14.5697C61.8561 14.5697 62.5759 14.221 63.3426 12.366C63.7807 11.3514 64.923 8.33914 65.3768 7.22936C65.768 6.27813 65.9088 6.08788 66.7851 5.92934V5.48543ZM75.5009 14.2368V13.777C74.5933 13.6978 74.4838 13.5868 74.4838 12.3343V7.3562C74.4838 6.11959 74.5933 6.00861 75.5165 5.92934V5.48543H67.1919V5.92934C68.1621 6.00861 68.256 6.11959 68.256 7.34034V12.3343C68.256 13.5868 68.1621 13.6978 67.2389 13.777V14.221H70.9005V13.777C70.0868 13.6978 69.9929 13.5868 69.9929 12.3343V6.53179C69.9929 6.05617 70.0242 6.02446 70.478 6.02446H72.3088C72.7625 6.02446 72.7782 6.04032 72.7782 6.5635V12.3343C72.7782 13.5868 72.6843 13.6978 71.8393 13.777V14.221H75.5009V14.2368ZM84.6705 14.2368V13.777C83.7629 13.6978 83.6534 13.5868 83.6534 12.3343V7.3562C83.6534 6.11959 83.7629 6.00861 84.6861 5.92934V5.48543H76.3615V5.92934C77.3317 6.00861 77.4256 6.11959 77.4256 7.34034V12.3343C77.4256 13.5868 77.3317 13.6978 76.4085 13.777V14.221H80.07V13.777C79.2564 13.6978 79.1625 13.5868 79.1625 12.3343V6.53179C79.1625 6.05617 79.1938 6.02446 79.6476 6.02446H81.4783C81.9321 6.02446 81.9478 6.04032 81.9478 6.5635V12.3343C81.9478 13.5868 81.8539 13.6978 81.0089 13.777V14.221H84.6705V14.2368ZM93.4332 14.2368V13.777C92.6978 13.6978 92.5256 13.5392 92.1188 12.3343C91.3051 9.98795 90.5697 7.65742 89.7716 5.31104L89.1457 5.45372L86.6108 12.5087C86.2509 13.5392 86.0475 13.6978 85.2807 13.777V14.221H88.066V13.777C87.1585 13.6502 87.1115 13.4917 87.3149 12.7624C87.4558 12.2234 87.6123 11.7794 87.7218 11.4465H90.022C90.1785 11.8904 90.3506 12.4453 90.4601 12.8575C90.6792 13.5234 90.601 13.6819 89.8968 13.777V14.221H93.4332V14.2368ZM89.8029 10.7489H87.9252C88.2538 9.766 88.5198 8.79891 88.8641 7.80011H88.911L89.8029 10.7489Z" fill="#00728F"/>
</g>
<defs>
<clipPath id="clip0_1_1321">
<rect width="172" height="66" fill="white"/>
</clipPath>
</defs>
</svg>
