<svg width="106" height="106" viewBox="0 0 106 106" fill="none" xmlns="http://www.w3.org/2000/svg">
<g clip-path="url(#clip0_1_877)">
<rect x="41.9766" y="58.9136" width="27" height="10" transform="rotate(119.428 41.9766 58.9136)" fill="#00728F"/>
<path d="M41 62.4848L57.5 63L55.5 74.5L58 76.5L64.5 72.5L87.5 86L85.5 91H81L78 95.5L72.5 100.5L66 99L62.5 104.5L57 101L56.5 97L53 94L51 88L47.5 87L44 83L39.5 84.5L30.5 80.5L41 62.4848Z" fill="#FFCC34"/>
<path d="M63 3L72.5 11L80 19L64.5 18.5L63 3Z" fill="#00728F"/>
<path d="M69.3485 28.5295H18.5867C17.7255 28.5295 17.0273 29.2277 17.0273 30.0889C17.0273 30.9502 17.7255 31.6483 18.5867 31.6483H69.3487C70.21 31.6483 70.9081 30.9502 70.9081 30.0889C70.9081 29.2277 70.2098 28.5295 69.3485 28.5295Z" fill="#00485A"/>
<path d="M18.5867 20.8316H43.9675C44.8287 20.8316 45.5268 20.1334 45.5268 19.2722C45.5268 18.4109 44.8287 17.7128 43.9675 17.7128H18.5867C17.7255 17.7128 17.0273 18.4109 17.0273 19.2722C17.0273 20.1337 17.7255 20.8316 18.5867 20.8316Z" fill="#00485A"/>
<path d="M69.3485 38.1135H18.5867C17.7255 38.1135 17.0273 38.8116 17.0273 39.6728C17.0273 40.5341 17.7255 41.2322 18.5867 41.2322H69.3487C70.21 41.2322 70.9081 40.5341 70.9081 39.6728C70.9079 38.8116 70.2098 38.1135 69.3485 38.1135Z" fill="#00485A"/>
<path d="M30.1487 95.1656H13.9036C11.2372 95.1656 9.06773 92.9964 9.06773 90.33V7.95435C9.06773 5.28799 11.2372 3.11851 13.9036 3.11851H60.7042C60.8554 3.11851 61.0042 3.13238 61.1514 3.15226V12.8773C61.1514 17.2635 64.7198 20.8317 69.1058 20.8317H78.8306C78.8507 20.9791 78.8644 21.128 78.8644 21.2791V47.8331C78.8644 48.6944 79.5625 49.3925 80.4237 49.3925C81.285 49.3925 81.9831 48.6944 81.9831 47.8331V21.2793C81.9831 19.5688 81.3169 17.9606 80.1074 16.7509L65.2322 1.8757C64.0227 0.666227 62.4147 0 60.7042 0H13.9036C9.5174 0 5.94922 3.56839 5.94922 7.95435V90.33C5.94922 94.716 9.51761 98.2841 13.9036 98.2841H30.1487C31.0099 98.2841 31.708 97.586 31.708 96.7248C31.708 95.8635 31.0099 95.1656 30.1487 95.1656ZM76.6593 17.7132H69.106C66.4396 17.7132 64.2701 15.5437 64.2701 12.8773V5.32402L76.6593 17.7132Z" fill="#00485A"/>
<path d="M99.5746 76.3385L86.3623 54.0371C85.3994 52.4111 83.3038 51.8736 81.677 52.8373L78.4632 54.7414C75.9687 56.2192 74.9143 59.2098 75.7708 61.86C74.688 62.2523 73.5009 62.2461 72.4077 61.8235C69.8704 61.0252 67.9413 59.4193 64.7553 60.2251C59.3455 61.6024 59.5099 61.5335 59.0205 61.7012C55.8529 59.8977 53.9488 59.3611 50.5862 60.6619L47.5888 61.8206C46.2011 62.3569 44.672 62.2297 43.3896 61.4699L42.5716 60.9878C42.9708 58.5961 41.9102 56.0722 39.6643 54.7418L36.4506 52.8378C34.8283 51.8769 32.7265 52.4148 31.7654 54.0371L18.5527 76.3387C17.5898 77.9643 18.1256 80.0605 19.752 81.0238L22.9656 82.9277C23.938 83.5039 25.0067 83.7778 26.0626 83.7778C27.24 83.7778 28.4008 83.4366 29.3933 82.7939L30.063 83.1892L28.649 85.1587C26.964 87.506 27.4994 90.77 29.8471 92.4553C30.9328 93.2345 32.2967 93.5904 33.7072 93.3689C33.931 94.6771 34.6477 95.9015 35.8084 96.735C36.8984 97.5176 38.2561 97.8739 39.6691 97.6513C39.8935 98.9585 40.6098 100.182 41.7698 101.015C43.3288 102.134 45.267 102.263 46.882 101.573C47.2354 102.491 47.8497 103.32 48.7066 103.936C50.9442 105.542 54.0265 105.123 55.7651 103.042L59.5227 105.268C62.0077 106.741 65.214 105.922 66.6875 103.434C67.0643 102.798 67.298 102.105 67.3835 101.393L67.392 101.398C69.8733 102.867 73.0868 102.045 74.5567 99.5641C74.9824 98.8455 75.2157 98.066 75.2724 97.2849C77.4595 97.8348 79.8431 96.9162 81.0501 94.879C81.4461 94.2107 81.6757 93.4888 81.7513 92.7623C84.0953 93.6821 86.8349 92.7931 88.1587 90.5589C88.8707 89.357 89.0721 87.9501 88.7257 86.5967C88.5276 85.8224 88.1632 85.1195 87.6631 84.526L89.7342 83.3159C91.4863 84.0351 93.4858 83.92 95.1615 82.9275L98.3746 81.0236C100.001 80.0609 100.538 77.9651 99.5746 76.3385ZM24.5552 80.2448L21.3416 78.3407C21.1988 78.256 21.1514 78.0709 21.2358 77.9281L34.4486 55.6261C34.5337 55.4826 34.7194 55.436 34.8614 55.5205L38.0747 57.4241C39.5026 58.2703 39.9494 60.1017 39.1188 61.5035L28.6345 79.2005C27.7977 80.6133 25.968 81.0814 24.5552 80.2448ZM31.6657 89.9218C30.7187 89.2419 30.5021 87.9248 31.1824 86.9774L33.2608 84.0823C33.9229 83.16 35.2423 82.9076 36.2052 83.5989C37.1503 84.2773 37.3671 85.598 36.6889 86.5431L34.6103 89.4382C33.9318 90.3837 32.6103 90.5998 31.6657 89.9218ZM37.6271 94.2018C36.682 93.5231 36.4653 92.2021 37.1437 91.2572L39.2221 88.3623L41.516 85.1669C41.8448 84.7092 42.3319 84.4065 42.888 84.3154C43.0035 84.2964 43.1192 84.2871 43.2341 84.2871C43.6718 84.2871 44.0977 84.4233 44.4604 84.6835C44.9179 85.0123 45.2206 85.4992 45.3117 86.0553C45.403 86.6116 45.2724 87.17 44.9436 87.6277L40.5713 93.7182C39.8918 94.6653 38.5745 94.8821 37.6271 94.2018ZM43.5886 98.4813C42.6439 97.8031 42.4269 96.4831 43.1041 95.5382L43.105 95.5369L47.4773 89.4467C48.1553 88.5018 49.477 88.2848 50.4217 88.9631C51.3668 89.6415 51.5835 90.9624 50.9051 91.9075L48.9625 94.6136L46.5328 97.9979C45.8543 98.943 44.5339 99.1602 43.5886 98.4813ZM50.5254 101.402C49.5809 100.724 49.3637 99.4045 50.0405 98.4594L51.4957 96.4325C52.174 95.4872 53.4954 95.2711 54.4401 95.9491C55.385 96.6274 55.602 97.9484 54.9235 98.8935L53.4696 100.918C52.7913 101.864 51.4701 102.081 50.5254 101.402ZM85.4762 88.9695C84.8828 89.9709 83.586 90.303 82.5844 89.7098C80.8884 88.7051 69.948 82.2236 68.7816 81.5325C68.0404 81.0936 67.0842 81.3381 66.6452 82.0791C66.2063 82.82 66.4508 83.7765 67.1918 84.2154L77.6268 90.3976C78.6286 90.9909 78.963 92.284 78.3674 93.2898C77.7738 94.2916 76.4763 94.6231 75.4751 94.0304C71.6156 91.7439 68.4818 89.8872 65.0345 87.8449C64.2932 87.406 63.3371 87.6505 62.8982 88.3914C62.4593 89.1324 62.7038 90.0889 63.4447 90.5278L71.1335 95.0829L71.1351 95.0839C72.1376 95.6792 72.4684 96.9714 71.874 97.9751C71.2805 98.977 69.9834 99.3088 68.9816 98.7155L64.8552 96.2711L64.8538 96.2702L64.8526 96.2696L61.8413 94.4854C61.1001 94.0463 60.1438 94.2908 59.7049 95.032C59.266 95.7729 59.5105 96.7294 60.2515 97.1683L63.2634 98.9527L63.2646 98.9536C64.2665 99.5469 64.6006 100.84 64.005 101.845C63.4114 102.847 62.1144 103.179 61.1125 102.586L57.599 100.504C59.1052 98.1803 58.5323 95.0483 56.2589 93.4165C55.5912 92.9374 54.8478 92.6391 54.0873 92.511C54.8939 90.3543 54.1985 87.8364 52.2402 86.4307C51.0808 85.598 49.6927 85.3104 48.3826 85.5158C48.1495 84.1525 47.404 82.9583 46.2792 82.1511C44.1637 80.6329 41.2889 80.9247 39.5132 82.7211C39.1523 82.0873 38.6542 81.5188 38.024 81.0665C36.2661 79.8048 33.9838 79.793 32.2435 80.8557L31.529 80.434L41.3361 63.88L41.8029 64.1553C43.865 65.3768 46.3812 65.6315 48.7132 64.7296L51.7106 63.5709C53.4259 62.908 54.3718 62.8647 56.0684 63.6653C54.9583 64.9124 54.2993 66.5499 54.2993 68.3146V75.2284C54.2993 77.0648 55.7922 78.5597 57.6272 78.561H57.6317C59.4722 78.561 61.203 77.8444 62.505 76.5433C63.264 75.7847 63.8242 74.8804 64.16 73.8933C66.1734 75.0855 82.8078 84.9359 84.7363 86.0785C85.2213 86.3659 85.5654 86.8248 85.7052 87.371C85.8449 87.9165 85.7635 88.4844 85.4762 88.9695ZM96.7859 78.3407L93.5721 80.2448C92.1594 81.0812 90.3296 80.6127 89.4932 79.2007L84.5791 70.906C84.14 70.165 83.1831 69.9205 82.4428 70.359C81.7018 70.7979 81.4571 71.7544 81.8958 72.4954L86.8099 80.7903C86.9024 80.9464 87.0028 81.0948 87.1068 81.2396L85.7406 82.0377C85.4644 82.2012 85.1988 82.3813 84.9447 82.577L63.7607 70.0319C62.7228 69.4177 61.4069 70.1665 61.4069 71.3735C61.3906 71.4666 61.568 73.0695 60.3004 74.3367C59.5873 75.0491 58.6395 75.4416 57.6315 75.4416H57.629C57.5125 75.4416 57.4177 75.3456 57.4177 75.2276V68.3138C57.4177 66.5076 58.6603 64.9839 60.3407 64.5584L65.5198 63.2477C67.399 62.7728 68.4613 63.7763 71.2751 64.7286C73.2284 65.4843 75.3524 65.4377 77.2376 64.6325L78.1787 66.2213C78.6179 66.9627 79.5743 67.207 80.3151 66.7683C81.0561 66.3294 81.3008 65.3729 80.8621 64.6319L79.0083 61.5031C78.1696 60.0874 78.6369 58.263 80.0524 57.4239L83.2659 55.5203C83.4063 55.4368 83.592 55.4795 83.6789 55.6261L96.8913 77.9277C96.9766 78.0716 96.9296 78.2556 96.7859 78.3407Z" fill="#00485A"/>
</g>
<defs>
<clipPath id="clip0_1_877">
<rect width="106" height="106" fill="white"/>
</clipPath>
</defs>
</svg>
